<?xml version="1.0" encoding="utf-8"?>
<!-- Generator: Adobe Illustrator 22.0.1, SVG Export Plug-In . SVG Version: 6.00 Build 0)  -->
<!DOCTYPE svg PUBLIC "-//W3C//DTD SVG 1.1//EN" "http://www.w3.org/Graphics/SVG/1.1/DTD/svg11.dtd" [
	<!ENTITY st0 "fill:#B3C5BD;">
	<!ENTITY st1 "fill:#010101;">
	<!ENTITY st2 "fill:#B65641;">
]>
<svg version="1.1" xmlns="http://www.w3.org/2000/svg" xmlns:xlink="http://www.w3.org/1999/xlink" x="0px" y="0px"
	 viewBox="0 0 158.3 164.3" style="enable-background:new 0 0 158.3 164.3;" xml:space="preserve">
<g id="Layer_1">
</g>
<g id="symbol">
</g>
<g id="Layer_3">
	<path style="&st0;" d="M60.1,28.7c0.1,0.3,0.1,0.6,0.2,0.9c0.6,3.1,0.8,6.6,2.3,9.4c-0.1-0.2-0.2-0.4-0.3-0.6
		c0.6,1.4,1.1,2.8,1.7,4.1c0.7,1.6,1.9,2.9,2.7,4.4c0.7,1.5,1.4,3,1.8,4.6c0,0.7,0.1,1.5,0.1,2.2c0.2,0.1,0.2,0.2,0.2,0.4
		c-0.1-0.1-0.2-0.3-0.2-0.4c-0.1,3.1,0.1,6.3-0.1,9.4c-0.2,3.1-2,5.8-0.9,8.9c2.8-2.7,3-7.2,5.4-10.2c1.6-1.9,4-3,6.3-4
		c4.1-1.7,8.2-3.1,12-5.2c3.8-2.1,7.4-5,9.4-8.9c0.9-1.8,1.5-3.9,0.8-5.7c-0.5-1.3-1.7-2.3-2.9-3.1c-3-2.1-6.9-3.7-10.3-2.3
		c-4.3,1.7-6.7,7.1-8.8,10.9c-0.6,1.1-1.3,2.3-1.7,3.5c-0.5,1.2-0.8,2.5-1.3,3.7c-0.7,1.9-1.7,3.8-3,5.4c-0.8,1.1-1.8,2.2-2.3,3.5
		c-0.6,1.7-0.3,3.9-1.7,4.9c-0.4-0.8-0.1-1.7,0-2.6c0.3-1.6,0.1-3.1,0.1-4.7c0-0.9,0.1-1.8,0.3-2.7c0.2-0.8,1-1.6,0.9-2.4
		c0.9-0.7,1-1.8,1.2-2.8c0.9-5.1,3.5-10.2,5.4-14.9c-0.1,0.2-0.2,0.3-0.3,0.5c1.6-3,1.8-7.5,1.7-10.9c-0.1-1.8-0.1-3.9-0.8-5.6
		c-0.4-1.2-1-2.9-2.2-3.6c-0.1,0-0.2-0.9-0.3-1.1c-0.2-0.3-0.6-0.4-0.9-0.6c-4.5-3-11.1-1.9-13.8,3C58.7,19.9,59.3,24.6,60.1,28.7z
		 M84.5,40C84.6,40.1,84.6,40.1,84.5,40C84.6,40.1,84.6,40.1,84.5,40C84.6,40.1,84.6,40.1,84.5,40z M85,40.2c0,0,0-0.1,0.1-0.1
		c0,0,0,0,0,0c0,0,0,0,0,0c0,0,0,0,0,0c0,0,0,0,0,0C85,40.1,85,40.2,85,40.2z M68.5,34.4C68.5,34.4,68.5,34.4,68.5,34.4
		C68.4,34.4,68.4,34.4,68.5,34.4C68.4,34.4,68.4,34.4,68.5,34.4z M66.7,23.4c0.1,0.1,0.1,0.1,0.1,0.2C66.8,23.5,66.7,23.5,66.7,23.4
		C66.7,23.4,66.7,23.4,66.7,23.4C66.7,23.4,66.7,23.4,66.7,23.4C66.7,23.4,66.7,23.4,66.7,23.4z M68.4,47C68.4,47,68.4,47,68.4,47
		C68.4,47,68.4,47,68.4,47C68.4,47,68.4,47,68.4,47z M67.3,18.2C67.3,18.2,67.2,18.2,67.3,18.2C67.2,18.2,67.2,18.2,67.3,18.2
		C67.2,18.2,67.2,18.2,67.3,18.2c0,0,0-0.1,0-0.1C67.3,18.2,67.3,18.2,67.3,18.2z"/>
	<path style="&st0;" d="M28.7,75.1c0.7,4,2.4,7.9,5.5,10.5c1.9,1.6,4.3,2.7,6.7,3c5,0.7,10.6-1.3,14.8,1.5c2.1,1.4,3.4,3.7,4.6,6
		c1.4,2.7,2.9,5.5,3.7,8.5c1.9,6.6,0.6,13.6-0.7,20.4c-2.4-1.2-2.8-4.4-3.4-7c-0.5-2.1-1.3-4.1-2.1-6.1c-1.2-2.7-2.5-5.3-4.5-7.4
		c-4.3-4.3-13.1-6.7-18.8-4.5c-2.8,1.1-4.7,4-5,7c-0.8,8,8.3,18.8,16.6,18.1c3.9-0.4,8.1-2,12-0.3c0.6,0.3,1.2,0.6,1.9,0.6
		c0.2,0,0.4-0.1,0.7,0c0.2,0.1,0.3,0.2,0.4,0.4c3.2,3.9,3.1,9.5,2.8,14.5c-0.2,2.9-0.3,5.8-0.5,8.6c0,0.7-0.8,7.2,0.6,6.9
		c0.2,0,0.4-0.2,0.4-0.3c0.2-0.4,0.3-0.9,0.4-1.3c0.3-2.9,0.7-5.7,0.7-8.6c0-3.1-0.2-6.3,0.5-9.4c0.5-2.2,1.7-4,2.7-6
		c0.5-1.1,1.1-2,2-2.7c0.6-0.5,1.4-0.9,1.6-1.8c1.7-1.2,3.5-2.5,5.8-2.3c1.4,0,2.7,0,4.1,0.1c1.1,0,2.8,1,4,1.2
		c3.1,0.7,6,1.3,9.1,0.3c2.8-0.9,5.2-2.9,6.7-5.5c0.5-0.9,0.9-1.9,1-3c0.4-5.4-5.4-6.9-9.6-7.3c-3.3-0.3-6.7,0.1-9.7,1.3
		c-2,0.8-3.9,1.9-5.4,3.4c-0.8,0.9-1.5,1.8-2.2,2.8c-3.3,4.9-6.7,9.8-10,14.7c-0.4-0.3-0.6-0.8-0.8-1.3c-1.4-5,0.9-10.2,1.6-15.3
		c0.4-2.4,0.4-4.9,0.4-7.4c0.9-3.2,2.9-6.2,5.6-8.1c0-0.2-0.3,0-0.2,0.1s0.3,0.1,0.5,0.1c8.1-1.5,16.1,3.6,24.3,2.9
		c3.2-0.3,6.4-1.5,9-3.5c2-1.5,3.7-3.5,4.5-6c1.1-3.8-0.8-8.1-4.6-9.6c-1.3-0.5-2.7-0.6-4.1-0.8c-4.2-0.6-8.4,0.7-12.3,2.3
		c-3.7,1.6-7.3,3.6-10.7,5.9c-0.6,0.4-1.3,0.9-2,1.3c-1.1,0.6-2.3,0.9-3.3,1.6c-0.9,0.6-1.6,1.5-2.2,2.3c-1.6,2-3.2,4.1-4.8,6.1
		c-0.9-1.1-0.6-2.4-0.3-3.6c0.3-1.4,0.1-2.6,0.2-4c0.2-3.1,1.6-6,3.3-8.5c2-3,4.5-5.8,7.8-7c2.5-0.9,5.2-0.8,7.9-0.8
		c3.9-0.1,7.8-0.5,11.5-1.8c3.7-1.3,7.1-3.6,9.2-6.9c1.3-2,2.2-4.6,1.4-6.9c-0.9-2.5-3.5-4-6.1-4.6c-4.9-1.1-9.9,0.6-14.2,3.2
		c-4.9,3-9,7.3-12,12.1c-2.7,4.3-4.8,9.2-8.8,12.1c0.1-3,0.5-5.9,0.9-8.9c0.1-0.6,0.2-1.2-0.1-1.8c-0.4-0.9-1.4-0.4-1.9-1.2
		c-0.5-0.8-0.4-1.8-1.3-2.4c-0.9-1.6-1.5-3.2-1.3-5.1c0-0.2-0.1-0.4-0.2-0.5c-0.1-1.3,0.4-2.7,0.1-4c-0.2-0.8,0.1-1.7,0-2.5
		c-0.1-1.3-0.4-2.6-0.7-3.8c-0.5-2.5-1.1-5-1.9-7.5c-0.8-2.7-1.8-5.5-3.3-7.9c-1.9-3-5.8-7.4-9.7-5.2c-0.2,0-0.3,0-0.5,0.1
		c-2.9,1.4-5.6,2.9-5.9,6.4c-1,10.5,6.5,18.8,14.7,24.1c2.1,1.4,4.3,2.6,5.9,4.6c1.9,2.3,2.6,5.4,3.1,8.4c1.1,7.4,0.7,14.9-0.3,22.3
		c-2.4-3.4-4.9-7-5.4-11.1c-0.2-1.5-0.1-3.1-0.2-4.7c-0.3-3.4-1.6-6.7-3.2-9.8c-3.4-6.7-8.5-13.1-15.6-15.4
		c-2.6-0.9-5.7-1.1-8.1,0.4c-3.1,2-3.9,6.2-4,9.8C28.3,71.4,28.4,73.3,28.7,75.1z M97.6,118.1C97.6,118.1,97.6,118.1,97.6,118.1
		C97.6,118.1,97.6,118.1,97.6,118.1C97.6,118.1,97.6,118.1,97.6,118.1C97.6,118.1,97.6,118.1,97.6,118.1z M86.4,120.1
		C86.4,120.1,86.4,120.1,86.4,120.1C86.5,120.1,86.5,120.1,86.4,120.1c0.1,0,0.2,0.1,0.3,0.1C86.6,120.2,86.5,120.1,86.4,120.1z
		 M39.1,120.5C39.1,120.5,39.1,120.5,39.1,120.5C39.1,120.5,39.1,120.5,39.1,120.5C39.1,120.5,39.1,120.5,39.1,120.5z M46.8,122.1
		c-0.1,0.2-0.2,0.3-0.3,0.3C46.5,122.3,46.7,122.2,46.8,122.1z M53.5,116.3c0,0,0.1,0.1,0.1,0.1c0,0,0,0-0.1,0.1
		C53.5,116.4,53.5,116.4,53.5,116.3c0,0.1,0,0.2,0,0.2c0,0,0,0,0,0S53.4,116.5,53.5,116.3C53.4,116.4,53.5,116.4,53.5,116.3
		C53.5,116.4,53.5,116.3,53.5,116.3z M31.1,110.4c0-0.1,0-0.2,0.2-0.2c0,0.1-0.1,0.2-0.1,0.3C31.1,110.5,31.1,110.4,31.1,110.4z
		 M64.5,132.2c0.1,0.1,0.1,0.2,0.1,0.4c0,0,0,0,0,0C64.5,132.5,64.5,132.4,64.5,132.2z M49.2,53C49.2,53,49.2,53,49.2,53
		C49.2,53,49.2,53,49.2,53C49.2,53,49.2,53,49.2,53z M49.4,52.7C49.5,52.7,49.5,52.7,49.4,52.7C49.5,52.7,49.5,52.7,49.4,52.7
		C49.4,52.7,49.4,52.7,49.4,52.7z M51.7,53.2C51.7,53.2,51.7,53.3,51.7,53.2C51.7,53.3,51.7,53.3,51.7,53.2
		C51.7,53.3,51.7,53.3,51.7,53.2C51.7,53.3,51.7,53.2,51.7,53.2z M61.5,63.6C61.5,63.6,61.5,63.6,61.5,63.6
		C61.5,63.6,61.5,63.6,61.5,63.6C61.5,63.6,61.5,63.6,61.5,63.6C61.5,63.6,61.5,63.6,61.5,63.6C61.5,63.6,61.5,63.6,61.5,63.6
		C61.5,63.6,61.5,63.6,61.5,63.6C61.5,63.6,61.4,63.6,61.5,63.6C61.4,63.6,61.5,63.6,61.5,63.6C61.5,63.6,61.5,63.6,61.5,63.6z
		 M59.8,67.1c-0.1-0.1-0.1-0.2,0-0.3c0,0,0,0,0,0.1C59.8,66.8,59.8,67.1,59.8,67.1z M73,95.2L73,95.2L73,95.2L73,95.2z M73,95.2
		L73,95.2c0,0.1,0.1,0.1,0.1,0.1c0,0-0.1,0-0.1,0C73,95.3,73,95.3,73,95.2L73,95.2z M97.7,91.2L97.7,91.2
		C97.7,91.2,97.7,91.2,97.7,91.2C97.7,91.2,97.7,91.2,97.7,91.2C97.7,91.1,97.6,91.2,97.7,91.2C97.6,91.1,97.6,91.1,97.7,91.2
		C97.7,91.1,97.7,91.1,97.7,91.2z M102.5,96.6c0.3,0,0.5,0.2,0.5,0.5c0,0,0,0.1,0,0.1C102.8,96.9,102.6,96.7,102.5,96.6z
		 M102.9,92.3C102.9,92.3,102.8,92.3,102.9,92.3C102.9,92.3,102.9,92.3,102.9,92.3C102.9,92.3,102.9,92.3,102.9,92.3z M97.7,89.4
		C97.7,89.4,97.7,89.4,97.7,89.4C97.7,89.4,97.7,89.4,97.7,89.4C97.7,89.4,97.7,89.4,97.7,89.4z M82.3,94.8
		C82.3,94.8,82.3,94.8,82.3,94.8c-0.1,0.2-0.1,0.3-0.1,0.4C82.1,95,82.2,94.9,82.3,94.8z M97.7,99.1C97.7,99.1,97.7,99.1,97.7,99.1
		C97.7,99.1,97.7,99.1,97.7,99.1C97.7,99.1,97.7,99.1,97.7,99.1z M86.2,91.1c0,0-0.1,0-0.1,0.1c0-0.1,0-0.2,0-0.2
		C86.1,91,86.1,91.1,86.2,91.1z M101.9,100.5c0.2,0.1,0.3,0.3,0.4,0.5C102.1,100.8,101.9,100.7,101.9,100.5z M93.7,67.7
		C93.7,67.7,93.7,67.6,93.7,67.7C93.7,67.6,93.7,67.6,93.7,67.7C93.7,67.6,93.7,67.6,93.7,67.7C93.7,67.6,93.7,67.6,93.7,67.7z
		 M92.5,67.6C92.5,67.6,92.5,67.6,92.5,67.6L92.5,67.6L92.5,67.6C92.5,67.6,92.5,67.6,92.5,67.6C92.5,67.6,92.5,67.6,92.5,67.6z
		 M89.8,70.5c-0.1,0-0.2,0.1-0.2,0.1c0,0,0,0,0-0.1c0,0,0,0,0,0c0,0,0,0,0,0C89.6,70.5,89.7,70.5,89.8,70.5z M99.9,74.9
		c0,0,0.1,0,0.1,0c0,0,0,0,0,0l0,0c0,0.1,0,0.2,0,0.3C100,75.1,99.9,75,99.9,74.9z M101.6,74.4C101.6,74.4,101.6,74.4,101.6,74.4
		L101.6,74.4l0.1,0.1C101.7,74.5,101.6,74.4,101.6,74.4z M43.6,77.7c0,0.1,0,0.1-0.1,0.2C43.5,77.8,43.5,77.8,43.6,77.7z M42,75.7
		c0.1-0.1,0.1-0.1,0.1-0.2c0,0.1,0,0.1,0,0.2C42.1,75.7,42,75.7,42,75.7z M39.7,80.2C39.7,80.2,39.7,80.2,39.7,80.2L39.7,80.2
		C39.7,80.2,39.7,80.2,39.7,80.2z M55.8,79.2c0,0,0-0.1,0-0.1l0,0c0,0,0,0,0,0c0,0,0,0,0,0c0,0,0,0,0,0l0,0c0.1,0,0.1,0.1,0.2,0.1
		C55.9,79.2,55.9,79.2,55.8,79.2z M54.8,73.5c0-0.1,0-0.1,0-0.2C54.8,73.4,54.8,73.4,54.8,73.5z M52.8,70.1c0,0-0.1,0-0.1,0
		c0.1-0.1,0.2-0.2,0.2-0.2C52.9,69.9,52.9,70,52.8,70.1z"/>
</g>
</svg>
