<?xml version="1.0" encoding="utf-8"?>
<!-- Generator: Adobe Illustrator 22.0.1, SVG Export Plug-In . SVG Version: 6.00 Build 0)  -->
<!DOCTYPE svg PUBLIC "-//W3C//DTD SVG 1.1//EN" "http://www.w3.org/Graphics/SVG/1.1/DTD/svg11.dtd" [
	<!ENTITY st0 "fill:#B3C5BD;">
	<!ENTITY st1 "fill:#010101;">
	<!ENTITY st2 "fill:#B65641;">
]>
<svg version="1.1" xmlns="http://www.w3.org/2000/svg" xmlns:xlink="http://www.w3.org/1999/xlink" x="0px" y="0px"
	 viewBox="0 0 158.3 164.3" style="enable-background:new 0 0 158.3 164.3;" xml:space="preserve">
<g id="Layer_1">
</g>
<g id="symbol">
</g>
<g id="Layer_3">
	<g>
		<g>
			<path d="M42.8,151c-12.6-6.5-18.1-11.2-18.1-15.3c0-4.3,6.1-7.3,13.8-11.2c15-7.6,35.6-17.9,32.9-45.1c-0.3-2.8,3.6-5.7,9-9.7
				c8.6-6.3,21.5-15.9,25.2-31.6c3.4-14.3,9.3-24,17.5-29c8.3-5,15.7-3.2,16-3.1l-0.2,1c-0.1,0-7.4-1.8-15.3,3
				c-8,4.8-13.7,14.4-17,28.4C102.8,54.4,89.7,64.1,81,70.5c-4.9,3.7-8.8,6.5-8.6,8.8c2.7,27.9-19.1,38.8-33.5,46.1
				c-7.4,3.7-13.2,6.7-13.2,10.3c0,3.6,5.6,8.1,17.6,14.4L42.8,151z"/>
		</g>
		<g>
			<path d="M46.2,151.5c-11-6.1-15.9-10.7-16-15c-0.1-4.7,5.8-8.3,13.3-12.9c13.5-8.3,32-19.6,31.2-45.5c-0.1-2.9,3.7-5.9,8.8-9.9
				c8.4-6.5,19.8-15.5,23.7-30.5c3.8-14.7,10-24.5,18.2-29.1c7.6-4.3,14.1-2.4,14.4-2.3l-0.3,1c-0.1,0-6.4-1.9-13.7,2.2
				c-8,4.5-13.9,14.1-17.7,28.5c-4,15.4-15.6,24.5-24.1,31.1c-4.8,3.7-8.5,6.7-8.5,9.1c0.9,26.5-17.9,38-31.7,46.4
				c-7.2,4.4-12.9,7.9-12.8,12c0.1,3.8,5,8.3,15.5,14.1L46.2,151.5z"/>
		</g>
		<g>
			<path d="M49.7,152c-9.4-5.7-13.7-10.2-13.9-14.6c-0.2-5.2,5.6-9.5,12.9-14.9c12.1-8.9,28.6-21.1,29.4-45.7c0.1-3,3.7-6,8.7-10.1
				c7.6-6.3,18.1-15,22.2-29.4c4.3-15.2,10.7-25,18.9-29.2c7-3.5,12.6-1.5,12.8-1.5l-0.3,0.9c-0.1,0-5.5-1.9-12,1.4
				c-7.9,4-14.1,13.6-18.3,28.5C105.7,52.2,95.1,61,87.3,67.4c-4.6,3.8-8.2,6.8-8.3,9.4c-0.7,25.1-17.5,37.4-29.8,46.5
				c-7.1,5.2-12.7,9.4-12.5,14c0.2,3.9,4.4,8.3,13.4,13.8L49.7,152z"/>
		</g>
		<g>
			<path d="M53.1,152.5c-7.7-5.2-11.4-9.7-11.7-14c-0.4-5.8,5.3-10.9,12.5-17.3c10.7-9.5,25.4-22.5,27.5-45.7
				c0.3-3.2,3.7-6.2,8.5-10.4c6.9-6.1,16.5-14.5,20.7-28.3c4.9-15.7,11.4-25.5,19.5-29.1c6.3-2.8,11.1-0.8,11.3-0.7l-0.4,0.9
				c0,0-4.6-2-10.5,0.7c-5.4,2.4-13,9.4-19,28.5c-4.4,14-14,22.5-21,28.7c-4.4,3.9-7.9,6.9-8.1,9.7c-2.1,23.6-17,36.7-27.8,46.3
				c-7,6.2-12.5,11.1-12.2,16.4c0.3,4,3.8,8.3,11.2,13.3L53.1,152.5z"/>
		</g>
		<g>
			<path d="M56.5,152.9c-6.1-4.7-9.1-8.9-9.4-13.3c-0.5-6.5,5.1-12.5,12.2-20.1c9.9-10.5,22.2-23.7,25.5-45.4
				c0.5-3.3,3.9-6.6,8.2-10.7c6.3-5.9,14.8-14,19.3-27.1c6.8-20.1,14.7-26.9,20.1-29c5.6-2.2,9.6-0.1,9.8,0l-0.5,0.9
				c0,0-3.8-2-9,0.1c-5.2,2.1-12.9,8.7-19.5,28.4c-4.5,13.3-13.2,21.6-19.5,27.5c-4.2,4-7.5,7.1-7.9,10.1
				c-3.3,22-15.7,35.2-25.7,45.9c-6.9,7.4-12.4,13.2-11.9,19.3c0.3,4.1,3.2,8.1,9.1,12.6L56.5,152.9z"/>
		</g>
		<g>
			<path d="M59.9,153.4c-13.5-12.4-5.8-22.2,4.8-35.8c8.6-11,19.2-24.6,23.4-44.7c0.7-3.5,3.9-6.8,8-10.9c5.9-6,13.3-13.5,17.8-26
				c7.5-20.7,15.4-27.1,20.6-28.8c4.9-1.6,8.2,0.5,8.4,0.6l-0.6,0.8c0,0-3.1-2-7.5-0.5c-5,1.7-12.6,7.9-20,28.2
				c-4.6,12.7-12.4,20.6-18,26.3c-4,4-7.1,7.2-7.7,10.4c-4.2,20.3-14.9,34.1-23.6,45.1c-10.6,13.6-17.7,22.6-4.9,34.4L59.9,153.4z"
				/>
		</g>
		<g>
			<path d="M63.3,153.8c-10.3-12.1-3.1-23.3,7-38.8c7.2-11.2,16.3-25.1,21.1-43.5c1-3.7,4-7,7.8-11.2c5.2-5.8,11.7-13,16.4-24.8
				c8.3-21.2,16-27.2,21-28.5c4.3-1.1,7,1,7.1,1.1l-0.6,0.8c-0.1-0.1-2.4-1.9-6.2-0.9c-4.8,1.3-12.2,7.1-20.3,27.9
				c-4.7,12-11.3,19.3-16.5,25.1c-3.7,4.1-6.6,7.3-7.5,10.8c-4.9,18.5-14,32.5-21.2,43.8c-10.2,15.7-16.9,26-7,37.6L63.3,153.8z"/>
		</g>
		<g>
			<path d="M66.7,154.3c-7-12,0-25,9.6-43.1c6.2-11.6,13.2-24.7,18.4-40.9c1.2-3.9,4-7.2,7.5-11.5c4.6-5.6,10.2-12.5,14.9-23.7
				c9.1-21.7,16.6-27.3,21.3-28.2c3.7-0.7,5.8,1.5,5.9,1.6l-0.7,0.7c-0.1-0.1-1.9-1.9-5-1.3c-4.4,0.8-11.6,6.3-20.5,27.6
				c-4.8,11.4-10.5,18.3-15.1,23.9c-3.4,4.2-6.1,7.4-7.3,11.1c-5.2,16.3-12.3,29.4-18.5,41.1c-9.5,17.8-16.3,30.6-9.6,42.1
				L66.7,154.3z"/>
		</g>
		<g>
			<path d="M70.1,154.6c-3.6-12.6,4.2-30.3,14.1-52.7c4.3-9.8,9.2-20.9,13.8-33c1.5-4.1,4.2-7.6,7.2-11.7
				c3.9-5.3,8.8-11.9,13.5-22.6c9.9-22.1,17.2-27.3,21.5-27.7c3.2-0.3,4.8,1.9,4.9,1.9l-0.8,0.6l0.4-0.3l-0.4,0.3
				c-0.1-0.1-1.4-1.8-4-1.5c-4,0.4-10.9,5.5-20.6,27.1c-4.8,10.7-9.7,17.4-13.7,22.7c-3.1,4.2-5.5,7.5-7,11.5
				c-4.6,12.1-9.5,23.2-13.8,33c-9.8,22.2-17.6,39.7-14.1,52L70.1,154.6z"/>
		</g>
		<g>
			<path d="M74.5,155l-1-0.1c1.2-17.3,11.8-50.7,27.9-87.3c1.9-4.3,4.2-7.8,6.8-12c3.3-5.1,7.4-11.4,12.2-21.4
				c8.5-17.7,15.9-27.1,21.5-27.2c2.8,0,4,2.2,4,2.3l-0.9,0.5l0.4-0.2l-0.4,0.2c0-0.1-1-1.8-3.1-1.8c-2.9,0.1-9.5,3.6-20.6,26.7
				c-4.8,10.1-8.9,16.4-12.2,21.5c-2.6,4.1-4.9,7.6-6.8,11.8C86.3,104.6,75.6,137.9,74.5,155z"/>
		</g>
		<g>
			<path d="M77.9,155.7l-0.9-0.4c2.8-5.8,4.9-15.2,7.4-26.1c4.1-18.1,9.2-40.6,20.3-62.8c2.3-4.6,4.3-8.2,6.6-12.5
				c2.6-4.8,5.9-10.8,10.7-20c9.3-18.1,16.5-27.1,21.3-26.7c2.4,0.2,3.2,2.5,3.2,2.6l-0.9,0.3c0-0.1-0.6-1.8-2.4-1.9
				c-2.5-0.2-8.5,3-20.4,26.2c-4.8,9.3-8,15.2-10.7,20.1c-2.3,4.3-4.4,7.9-6.6,12.5c-11,22.1-16.1,44.6-20.2,62.6
				C82.7,140.8,80.7,149.8,77.9,155.7z"/>
		</g>
		<g>
			<path d="M81.2,156.3l-0.7-0.7c6.3-6.6,8.5-19.7,11.1-35c2.9-17.5,6.3-37.4,16.4-55.6c2.5-4.5,4.1-8,5.9-12
				c2.2-4.9,4.7-10.5,9.7-19.7c9.9-18.1,17-26.8,21.1-26.2c2.1,0.3,2.5,2.8,2.5,2.9l-1,0.2c0,0-0.3-1.9-1.7-2.1
				c-2.1-0.3-7.4,2.5-20.1,25.6c-5,9.1-7.5,14.7-9.7,19.6c-1.8,4.1-3.4,7.6-5.9,12.1c-10.1,18-13.4,37.8-16.3,55.2
				C90,136.2,87.8,149.6,81.2,156.3z"/>
		</g>
		<g>
			<path d="M84.6,156.9l-0.5-0.8c9.8-6.3,11.4-21.5,13.3-39.2c1.8-17.3,3.9-36.8,14.1-53.1c2.9-4.7,4.1-8.2,5.5-12.2
				c1.6-4.7,3.4-10,8.4-18.6c10.4-17.9,17.5-26.5,20.9-25.6c1.8,0.5,1.8,3.1,1.8,3.2l-1,0c0,0-0.1-2-1.1-2.3
				c-1.3-0.4-5.9,1.4-19.8,25.1c-4.9,8.5-6.7,13.7-8.3,18.4c-1.4,4.1-2.6,7.6-5.6,12.4c-10.1,16.1-12.1,35.5-13.9,52.7
				C96.4,134.9,94.8,150.3,84.6,156.9z"/>
		</g>
		<g>
			<path d="M87.9,157.4l-0.4-0.9c13.4-5.9,14.1-22.7,15-42.1c0.8-17.3,1.7-36.9,12.1-51.9c3.3-4.8,4.1-8.3,5-12.3
				c1-4.5,2.2-9.6,7.2-17.6C143.4,6,146.5,7.2,147.5,7.5c1.5,0.6,1.2,3.2,1.2,3.5l-1-0.1c0.1-0.9,0-2.3-0.5-2.5
				c-0.8-0.3-4.5,0.7-19.4,24.7c-4.9,7.9-6.1,12.9-7.1,17.3c-0.9,4.1-1.7,7.7-5.2,12.6c-10.3,14.7-11.2,34.2-11.9,51.4
				C102.7,134.2,101.9,151.3,87.9,157.4z"/>
		</g>
		<g>
			<path d="M91.3,158l-0.3-1c17-5.3,16.8-23.5,16.6-44.6c-0.2-17.5-0.4-37.2,10.4-51.2c3.8-4.9,4.1-8.3,4.5-12.3
				c0.4-4.3,1-9.1,6-16.7c17.2-26,19.5-24.9,20.4-24.5c1.2,0.6,0.6,3.1,0.4,3.8l-1-0.3c0.4-1.3,0.4-2.5,0.1-2.7
				c-0.4-0.2-3.2,0.1-19.2,24.2c-4.9,7.4-5.4,12.1-5.8,16.3c-0.4,3.9-0.8,7.7-4.7,12.8c-10.5,13.7-10.4,32.4-10.2,50.6
				C108.8,133,109,152.4,91.3,158z"/>
		</g>
		<g>
			<path d="M94.7,158.5l-0.2-1c20.6-4.7,19.4-24.2,18-46.7c-1.1-18.5-2.3-37.7,8.8-50.8c4.2-5,4.1-8.3,4-12.3
				c-0.1-4.1-0.2-8.7,4.8-15.9c17.8-25.3,19.4-24.4,20.2-24c0.9,0.5,0.3,2.5-0.3,4.1l-0.9-0.4c0.5-1.1,0.8-2.4,0.8-2.9
				c-0.8,0.2-4.2,2.8-18.9,23.7c-4.9,6.9-4.8,11.2-4.6,15.3c0.1,3.9,0.2,7.7-4.2,12.9c-10.9,12.8-9.7,31.8-8.6,50.1
				C114.9,132.7,116.2,153.5,94.7,158.5z"/>
		</g>
		<g>
			<path d="M98.1,159l-0.2-1c24.3-4.1,21.9-25.8,19.4-48.7c-2.1-18.8-4.2-38.2,7.3-50.6c4.7-5,4.1-8.3,3.5-12.2
				c-0.7-3.9-1.4-8.4,3.7-15.1c18.4-24.5,19.5-23.9,20.1-23.5c0.3,0.2,0.9,0.6-1.2,4.4l-0.9-0.5c0.5-1,1.1-2.1,1.3-2.8
				c-1.3,1-5.5,5.5-18.5,22.9c-4.8,6.4-4.2,10.5-3.5,14.4c0.7,3.9,1.3,7.6-3.7,13c-11.2,12.1-9.1,31.3-7.1,49.9
				C120.9,132.6,123.4,154.7,98.1,159z"/>
		</g>
	</g>
</g>
</svg>
