<?xml version="1.0" encoding="utf-8"?>
<!-- Generator: Adobe Illustrator 22.0.1, SVG Export Plug-In . SVG Version: 6.00 Build 0)  -->
<!DOCTYPE svg PUBLIC "-//W3C//DTD SVG 1.1//EN" "http://www.w3.org/Graphics/SVG/1.1/DTD/svg11.dtd" [
	<!ENTITY st0 "fill:#B3C5BD;">
	<!ENTITY st1 "fill:#010101;">
	<!ENTITY st2 "fill:#B65641;">
]>
<svg version="1.1" xmlns="http://www.w3.org/2000/svg" xmlns:xlink="http://www.w3.org/1999/xlink" x="0px" y="0px"
	 viewBox="0 0 158.3 164.3" style="enable-background:new 0 0 158.3 164.3;" xml:space="preserve">
<g id="Layer_1">
</g>
<g id="symbol">
</g>
<g id="Layer_3">
	<g id="Layer_3_2_">
		<path style="&st2;" d="M145.4,68.1c-4.8-7.8-12.6-12.1-16.8-14.4c-0.6-0.3-1.3-0.7-1.8-1c-2.8-7.5-11.2-18.9-36.6-18.9
			c-0.4,0-0.7,0-1.1,0c-25.5,0.3-33.9,12.3-36.3,17c-2.7,0.9-8.3,3.1-13.4,7.1C38.6,49.7,36,41.6,35,38.7
			c-2.5-7.1-15.9-4.5-23.6-2.2c-1.5,0.4-2.6,1.8-2.6,3.4c0,1.6,1,3,2.4,3.5C16.9,45.3,19.7,58,15,74c-1.7,5.6-1.1,10.4,1.6,14.2
			c3.8,5.4,10.9,7.1,14.7,7.7c4.6,13.2,10.4,22.8,18.1,29.9c9.6,8.8,22.3,13.9,39,15.6h0.3c0,0,0.1,0,0.2,0c1.5,0,10.3-0.2,20.9-4.4
			s25.1-13.4,34.5-33.3C151,89.7,151.3,77.7,145.4,68.1z M89.3,40.9c0.3,0,0.6,0,0.9,0c15.7,0,26.3,4.9,29.8,13.9
			c-6.6,3.3-26,10-60.4-1.5C61.7,49.7,68.6,41.2,89.3,40.9z M22.6,84c-1.4-2-1.6-4.6-0.6-8.1c4.2-14.2,3.4-27-1.5-34.1
			c3.7-0.6,6.9-0.7,8.1-0.3c2.5,7.3,4.8,17.2,3.8,24.2c-0.3,0.4-0.5,0.8-0.7,1.2c-3.5,6.2-4.3,13.2-2.5,21
			C26.7,87.3,24.1,86.1,22.6,84z M137.9,100.6c-6.7,14.1-16.9,24.1-30.4,29.6c-9.5,3.9-17.4,4-18.5,4c-28.6-2.8-43.3-15.6-52.4-45.4
			c-2.1-7-1.7-13.1,1.2-18.2c5.5-9.8,18.5-13.3,18.6-13.3l1.9-0.5v-0.1c15.1,5.1,27.5,6.9,37.2,6.9c13.6,0,22.2-3.4,26.3-5.6
			c0.8,0.6,1.9,1.2,3.3,2C133.5,64.4,150.6,73.8,137.9,100.6z"/>
	</g>
</g>
</svg>
