<?xml version="1.0" encoding="utf-8"?>
<!-- Generator: Adobe Illustrator 22.0.1, SVG Export Plug-In . SVG Version: 6.00 Build 0)  -->
<!DOCTYPE svg PUBLIC "-//W3C//DTD SVG 1.1//EN" "http://www.w3.org/Graphics/SVG/1.1/DTD/svg11.dtd" [
	<!ENTITY st0 "fill:#B3C5BD;">
	<!ENTITY st1 "fill:#010101;">
	<!ENTITY st2 "fill:#B65641;">
]>
<svg version="1.1" xmlns="http://www.w3.org/2000/svg" xmlns:xlink="http://www.w3.org/1999/xlink" x="0px" y="0px"
	 viewBox="0 0 158.3 164.3" style="enable-background:new 0 0 158.3 164.3;" xml:space="preserve">
<g id="Layer_1">
</g>
<g id="symbol">
</g>
<g id="Layer_3">
	<g id="Layer_3_1_">
		<path style="&st1;" d="M109.9,76.5l0.3-9.4l-1.2-1.9c1.2-7.3,2-17.1-1.8-18.7c-2-0.8-4.3,0.4-7.3,4l-0.5-0.7l-0.1-22.6
			c0.5-0.3,0.9-0.7,1.2-1.3c0.7-1.2,0.7-2.7-0.1-4c-0.9-1.5-3-3.2-4.2-4.1l-0.7-0.5l-0.8-0.1c-0.3,0-6.5-1-19.7-1.4
			c-13.5-0.3-20.9,1.7-21.2,1.8L53,17.8l-4.1,4.3l-0.1,1.2c-0.1,1.4,0.4,2.6,1.4,3.5c0.2,0.2,0.5,0.4,0.8,0.6l-0.7,21
			c-2.3-2.2-4.3-2.9-6.1-2.2c-4.3,1.6-4.4,11.2-4,17l-1.5,1.9l0.1,8.9l1,1.6v51.5l-0.7,1.1v0.9c0,9.7,0.2,10.5,0.5,11.3
			c2.2,5.5,12.3,8.2,29.9,8.2c1.4,0,2.8,0,4.2,0c20.4-0.5,32.8-3.1,34.9-7.4l0.3-0.7l0.4-12.8l-0.7-0.6l0.5-50L109.9,76.5z
			 M105.9,49.5c0.9,0.9,1,5.5,0.3,11.1l-4.5-7.2C104.4,50,105.6,49.6,105.9,49.5z M45.5,70.6l-0.1-3.4l10.5-13.9
			c3.7,0.8,10.6,2,18.8,2c5.8,0,12.3-0.6,18.9-2.3l9.7,15.8l-0.1,1.9C78.8,79.2,53.8,73.1,45.5,70.6z M74.9,22.6
			c9.6,0.2,15.3,0.8,17.6,1.1l0.2,26.1c-14.9,3.9-29.8,1.6-35.9,0.3l0.8-26.4C60.6,23.2,66.4,22.4,74.9,22.6z M45.3,49.3
			c0.1,0,1-0.3,3.5,2.4l-5.5,7.2C43.4,53.8,44.2,49.7,45.3,49.3z M102.4,138c-2,1-8.7,3.4-28.8,3.9c-22.5,0.5-27.1-3.2-27.7-3.9
			c-0.1-1.3-0.1-4.8-0.1-8l0.7-1.1l0.1-54.5c6,1.7,16.6,4,29.3,4c8.3,0,17.5-1,26.7-4l-0.6,55.7l0.6,0.5L102.4,138z"/>
	</g>
</g>
</svg>
