<?xml version="1.0" encoding="utf-8"?>
<!-- Generator: Adobe Illustrator 22.0.1, SVG Export Plug-In . SVG Version: 6.00 Build 0)  -->
<!DOCTYPE svg PUBLIC "-//W3C//DTD SVG 1.1//EN" "http://www.w3.org/Graphics/SVG/1.1/DTD/svg11.dtd" [
	<!ENTITY st0 "fill:#B3C5BD;">
	<!ENTITY st1 "fill:#010101;">
	<!ENTITY st2 "fill:#B65641;">
]>
<svg version="1.1" xmlns="http://www.w3.org/2000/svg" xmlns:xlink="http://www.w3.org/1999/xlink" x="0px" y="0px"
	 viewBox="0 0 158.3 164.3" style="enable-background:new 0 0 158.3 164.3;" xml:space="preserve">
<g id="Layer_1">
</g>
<g id="symbol">
</g>
<g id="Layer_3">
	<g id="Layer_3_4_">
		<path style="&st1;" d="M121.7,19.6c-0.4-0.3-0.7-0.6-0.9-0.9c-1-1-2.2-1.5-3.5-1.3c-2.6,0.4-4.3,3.2-5,4.6L94.6,47.5L63,97.3
			l-0.1,0.1c-3.6,6.1-9.2,15.6-11.2,18.9c-4.7-0.1-9.7,3.9-15.2,12.3c-6.8,10.3-5.1,16.5-2.4,19.8c1.7,2.1,4.5,3.8,6.6,4.3l0,0
			c1.6,0.8,4.8,1.8,8.4,1.8c5.2,0,11.3-1.9,15.4-8.9c6.6-11,3.3-18.1,1.3-21l2.7-6.9l18.9-31.9L105.1,57c2.2-3.5,4.8-7.3,6.7-10
			c0.4,0.9,1.2,2.1,2.8,2.4c1,0.2,2.4,0,3.8-1.9c1.6-2.2,3.1-4.6,3.4-5.1c0.5-0.7,2.7-4.1,4.2-9.1C128.2,25.6,123.9,21.7,121.7,19.6
			z M120.9,31.9c-1.3,4.5-3.4,7.6-3.5,7.6l-0.1,0.2c0,0-0.7,1.2-1.7,2.6c-0.2-0.4-0.3-0.9-0.6-1.5c-0.4-0.9-1.2-1.6-2.2-1.6
			c-1.7-0.2-2.7,1.2-4.2,3.2c-0.9,1.2-2,2.8-3.4,4.8c-2.3,3.4-4.6,6.9-4.6,7L83,83.1l-19.1,32.1l-0.1,0.2l-4.1,10.5l1.3,1.2
			c0.1,0,5.4,5.1-1,15.9c-5.3,8.9-14.4,6.1-16.6,5.3c-0.3-0.2-0.6-0.4-1-0.5c-0.2-0.1-0.5-0.1-0.7-0.1c-0.9-0.3-3.4-1.3-4.4-3.6
			c-1.2-2.9,0-7.2,3.4-12.5c4.5-6.8,8.6-10.4,11.3-9.9c0.4,0.1,1.7,0.3,2.7-0.7c0.3-0.3,0.9-0.9,12.5-20.9L99,50.4l17.6-25.7
			l0.2-0.3c0.2-0.4,0.6-1,0.9-1.4c0.1,0.1,0.3,0.3,0.4,0.4C120.1,25.3,122.2,27.3,120.9,31.9z"/>
	</g>
</g>
</svg>
