<?xml version="1.0" encoding="utf-8"?>
<!-- Generator: Adobe Illustrator 22.0.1, SVG Export Plug-In . SVG Version: 6.00 Build 0)  -->
<!DOCTYPE svg PUBLIC "-//W3C//DTD SVG 1.1//EN" "http://www.w3.org/Graphics/SVG/1.1/DTD/svg11.dtd" [
	<!ENTITY st0 "fill:#B3C5BD;">
	<!ENTITY st1 "fill:#010101;">
	<!ENTITY st2 "fill:#B65641;">
]>
<svg version="1.1" xmlns="http://www.w3.org/2000/svg" xmlns:xlink="http://www.w3.org/1999/xlink" x="0px" y="0px"
	 viewBox="0 0 158.3 164.3" style="enable-background:new 0 0 158.3 164.3;" xml:space="preserve">
<g id="Layer_1">
</g>
<g id="symbol">
</g>
<g id="Layer_3">
	<g>
		<g>
			<path d="M88.8,149.2l-0.5-0.8c32.6-20.3,27.2-30.6,17.3-49.2c-5.8-11-13.1-24.8-15.1-45c-1.9-19.7,1.2-32.7,9.2-38.6
				c9.1-6.6,21.4-1.5,21.5-1.4l-0.4,0.9c-0.1-0.1-11.9-5-20.5,1.3c-7.7,5.7-10.7,18.3-8.8,37.7c2,20,9.2,33.7,15,44.6
				C116.3,117.2,122.3,128.4,88.8,149.2z"/>
		</g>
		<g>
			<path d="M86.7,149.4l-0.5-0.8c32.2-20.3,26.2-31,16.1-48.8c-6.2-11-14-24.7-15.3-44.9c-1.2-18.4,2.3-30.5,10.3-36
				c9.8-6.7,22.7-0.8,23.3-0.5l-0.4,0.9c-0.1-0.1-12.9-5.9-22.3,0.5c-7.7,5.2-11,17-9.8,35.1c1.3,20,9,33.6,15.1,44.5
				C113.5,117.5,119.8,128.6,86.7,149.4z"/>
		</g>
		<g>
			<path d="M84.6,149.6l-0.5-0.8c31.9-20.3,25.5-31,14.9-48.6c-6.6-11-14.9-24.7-15.5-44.7C83,38.3,86.8,27,94.7,21.9
				c10.6-6.7,24.5,0.2,25.1,0.5l-0.5,0.9c-0.1-0.1-14-7-24.1-0.5C87.6,27.6,84,38.6,84.5,55.4c0.6,19.8,8.7,33.3,15.3,44.2
				C110.4,117.2,117.4,128.7,84.6,149.6z"/>
		</g>
		<g>
			<path d="M82.5,149.8l-0.5-0.8c31.7-20.4,24.5-31.6,13.6-48.5c-7-10.9-15.8-24.6-15.6-44.4c0.2-16,4.2-26.5,12.1-31.1
				c11.4-6.7,26.4,1.3,27.1,1.6l-0.5,0.9c-0.1-0.1-15.2-8.1-26.1-1.6C85,30.3,81.1,40.5,81,56.1c-0.2,19.5,8.5,33,15.5,43.8
				C107.2,116.7,115,128.9,82.5,149.8z"/>
		</g>
		<g>
			<path d="M80.4,150l-0.5-0.8c13.5-8.8,20.4-16.3,21.9-23.8c1.6-8.3-3.6-15.9-9.6-24.7c-7.5-10.9-16.7-24.4-15.7-43.9
				c0.8-14.9,5.1-24.6,12.9-28.9c12.2-6.7,28.4,2.5,29.1,2.8l-0.5,0.9c-0.2-0.1-16.3-9.2-28.1-2.8c-7.5,4.1-11.6,13.5-12.4,28
				c-1,19.1,7.8,32,15.6,43.3c6.2,9,11.5,16.8,9.8,25.5C101.2,133.3,94.1,141.1,80.4,150z"/>
		</g>
		<g>
			<path d="M78.3,150.2l-0.5-0.8c13.2-8.7,20-16.2,21.4-23.7c1.5-8.4-4-16-10.4-24.9c-8.3-11.4-17.6-24.3-15.8-43.3
				c1.3-13.8,5.9-22.8,13.6-26.7c13.1-6.6,30.4,3.7,31.1,4.2l-0.5,0.9c-0.2-0.1-17.5-10.5-30.2-4.1C79.5,35.3,75.1,44,73.9,57.5
				c-1.8,18.7,7.5,31.4,15.7,42.7c6.5,9,12.2,16.8,10.6,25.6C98.7,133.6,91.8,141.3,78.3,150.2z"/>
		</g>
		<g>
			<path d="M76.2,150.4l-0.6-0.8c13-8.6,19.7-16.2,20.9-23.7c1.4-8.6-4.5-16.3-11.3-25.1C76.6,89.5,66.7,76.7,69.3,58
				c1.8-12.8,6.6-21.1,14.3-24.6c14.1-6.5,32.5,5.1,33.3,5.6l-0.5,0.8c-0.2-0.1-18.7-11.8-32.3-5.6c-7.4,3.4-12,11.4-13.7,23.9
				c-2.6,18.2,7.1,30.8,15.7,42c7,9,13,16.8,11.5,25.9C96.2,133.8,89.4,141.6,76.2,150.4z"/>
		</g>
		<g>
			<path d="M74.1,150.6l-0.6-0.8c12.6-8.5,19.3-16.2,20.4-23.7c1.3-8.8-4.9-16.5-12.2-25.4c-9.1-11.2-19.5-23.9-16-42
				c2.3-11.9,7.3-19.5,14.9-22.7c15-6.3,34.6,6.6,35.4,7.2l-0.6,0.8c-0.2-0.1-20-13.2-34.5-7.1C73.8,40,69,47.4,66.8,58.9
				C63.4,76.5,73.6,89,82.6,100c7.1,8.7,13.8,16.9,12.4,26.2C93.8,134.1,87.1,141.8,74.1,150.6z"/>
		</g>
		<g>
			<path d="M71.9,150.8l-0.6-0.8c12.5-8.4,19-16.2,20-23.7c1.2-9.1-5.8-17.2-13.1-25.7c-9.5-11.1-20.3-23.7-16-41.2
				c2.7-11,7.9-18,15.5-20.8c16-6,36.8,8.2,37.6,8.8l-0.6,0.8c-0.2-0.1-21.2-14.6-36.7-8.7c-7.3,2.7-12.3,9.5-14.9,20.1
				C59,76.6,69.6,89,79,99.9c7.5,8.7,14.6,17,13.4,26.5C91.3,134.2,84.7,142.2,71.9,150.8z"/>
		</g>
		<g>
			<path d="M69.8,151l-0.6-0.8c12.3-8.4,18.7-16.2,19.6-23.7c1.1-9.3-6.3-17.5-14.1-26.1c-9.9-11-21.2-23.4-16-40.4
				c3.1-10.1,8.5-16.5,16.1-19.1c17.1-5.7,39,9.9,39.9,10.6l-0.6,0.8c-0.2-0.2-22.4-16-39-10.4c-7.3,2.4-12.5,8.6-15.5,18.4
				c-5,16.4,5.5,28.1,15.8,39.4c8,8.8,15.5,17.2,14.4,26.9C88.9,134.4,82.4,142.4,69.8,151z"/>
		</g>
		<g>
			<path d="M67.7,151.2l-0.6-0.8c12.1-8.4,18.4-16.1,19.2-23.7c1-9.6-6.9-17.8-15.2-26.6c-10.8-11.4-22-23.2-16-39.5
				c3.5-9.3,9.1-15.2,16.7-17.4C90,37.8,113,54.9,114,55.6l-0.6,0.8c-0.2-0.2-23.6-17.5-41.2-12.3c-7.3,2.1-12.6,7.8-16,16.8
				c-5.9,15.8,5.1,27.3,15.8,38.5c8.5,8.9,16.5,17.3,15.5,27.4C86.5,134.6,80.1,142.6,67.7,151.2z"/>
		</g>
		<g>
			<path d="M65.6,151.4l-0.6-0.8c12-8.4,18.2-16.1,18.8-23.7c0.9-9.8-7.5-18.2-16.3-27C56.3,88.6,44.7,76.9,51.7,61.2
				c3.8-8.6,9.6-14,17.2-15.9c19.3-4.9,44.1,14.2,44.4,14.4l-0.6,0.8c-0.2-0.2-24.7-19-43.5-14.2c-7.3,1.8-12.8,7-16.5,15.3
				c-6.7,15.1,4.7,26.5,15.7,37.5c9,9,17.5,17.5,16.6,27.8C84.2,134.8,77.9,142.8,65.6,151.4z"/>
		</g>
		<g>
			<path d="M63.5,151.6l-0.6-0.8c11.9-8.4,17.9-16.1,18.5-23.7c0.8-10.1-8.1-18.6-17.5-27.5C52.3,88.4,40.3,76.9,48.1,61.9
				c4.1-8,10.1-12.8,17.7-14.4c20.4-4.3,46.4,16.2,46.6,16.4l-0.6,0.8c-0.3-0.2-25.8-20.5-45.8-16.2C58.8,50,53,54.7,49,62.3
				c-7.5,14.4,4.3,25.6,15.6,36.4c9.1,8.7,18.6,17.7,17.8,28.3C81.8,135,75.6,143,63.5,151.6z"/>
		</g>
		<g>
			<path d="M61.4,151.8l-0.6-0.8c11.7-8.3,17.7-16.1,18.2-23.7c0.6-10.4-9.2-19.4-18.7-28.1c-12-11-24.4-22.3-15.7-36.6
				c4.5-7.3,10.6-11.7,18.3-13c21.6-3.7,48.6,18.3,48.9,18.6l-0.6,0.8c-0.3-0.2-26.9-21.9-48.1-18.4c-7.4,1.3-13.3,5.5-17.6,12.6
				C37.2,76.7,48.7,87.2,61,98.4c9.7,8.8,19.7,18,19,28.9C79.5,135.2,73.4,143.2,61.4,151.8z"/>
		</g>
		<g>
			<path d="M59.3,151.9l-0.6-0.8c11.6-8.3,17.5-16.1,17.8-23.7c0.5-10.7-9.9-19.8-19.9-28.7C44.3,88,31.5,76.8,41.1,63.2
				c4.8-6.8,11.1-10.7,18.9-11.7C82.8,48.5,110.8,72,111,72.2l-0.6,0.8c-0.3-0.2-28-23.4-50.3-20.5c-7.5,1-13.6,4.8-18.2,11.3
				C32.8,76.6,44.7,87,57.2,98c10.2,9,20.8,18.2,20.3,29.5C77.1,135.4,71.2,143.4,59.3,151.9z"/>
		</g>
		<g>
			<path d="M57.2,152.1l-0.6-0.8c11.5-8.3,17.3-16.1,17.5-23.8c0.4-11.1-10.6-20.3-21.3-29.2C39.6,87.2,27.1,76.7,37.6,63.8
				c5.1-6.3,11.6-9.8,19.5-10.5c24-2.1,52.9,22.8,53.2,23l-0.7,0.8c-0.3-0.2-28.9-24.9-52.5-22.8c-7.6,0.7-13.9,4.1-18.8,10.1
				c-9.8,12.2,2.3,22.3,15.1,33.1c10.8,9.1,22,18.5,21.6,30C74.8,135.6,68.9,143.6,57.2,152.1z"/>
		</g>
		<g>
			<path d="M55,152.3l-0.6-0.8c11.4-8.3,17.1-16.1,17.3-23.8c0.3-11.4-11.4-20.8-22.6-29.9c-9.6-7.8-18.7-15.1-19.3-23.1
				c-0.3-3.5,1.1-6.9,4.3-10.3C44.7,52.9,61.2,52.1,81.7,62c15.4,7.4,27.8,18.4,27.9,18.5l-0.7,0.7c-0.5-0.4-49.1-43.1-74.1-16.1
				c-2.9,3.2-4.3,6.3-4,9.6c0.5,7.6,9.5,14.8,19,22.4c11.5,9.2,23.3,18.8,23,30.7C72.5,135.8,66.7,143.8,55,152.3z"/>
		</g>
	</g>
</g>
</svg>
