<?xml version="1.0" encoding="utf-8"?>
<!-- Generator: Adobe Illustrator 22.0.1, SVG Export Plug-In . SVG Version: 6.00 Build 0)  -->
<!DOCTYPE svg PUBLIC "-//W3C//DTD SVG 1.1//EN" "http://www.w3.org/Graphics/SVG/1.1/DTD/svg11.dtd" [
	<!ENTITY st0 "fill:#B3C5BD;">
	<!ENTITY st1 "fill:#010101;">
	<!ENTITY st2 "fill:#B65641;">
]>
<svg version="1.1" xmlns="http://www.w3.org/2000/svg" xmlns:xlink="http://www.w3.org/1999/xlink" x="0px" y="0px"
	 viewBox="0 0 158.3 164.3" style="enable-background:new 0 0 158.3 164.3;" xml:space="preserve">
<g id="Layer_1">
</g>
<g id="symbol">
</g>
<g id="Layer_3">
	<path style="&st0;" d="M120.9,58.3c-3-0.8-6.3-0.9-9-2.5c-0.9-0.5-1.9-1.3-3-1.1c0.3,0,1.4-1.7,1.7-2c0.7-0.7,1.5-1.2,2.4-1.7
		c1.6-1,3.4-1.6,5.2-2.4c9.2-4.3,16.5-12.3,19.3-22.2c-7.6,2.5-15.3,6.1-19.8,12.8c-1.7,2.5-2.9,5.4-4.3,8c-1.5,2.7-3.4,5.2-6.1,6.6
		c-1.1-1.8-1-4-1.2-6.1c-1-7.7-7.5-11-14.1-13.1c1.3,3.5,2.7,6.9,4.4,10.3c1.1,2.2,2.4,4.5,4.5,5.7c1.1,0.6,2.3,1,3.3,1.7
		c1,0.7,1.9,1.8,1.7,3.1c-0.1,0.9-0.9,1.6-1.5,2.3c-3.8,3.7-7.7,7.4-11.5,11.1c-0.8-2.1-0.4-4.4-0.2-6.7c0.5-7.5-3.4-16-10.3-19.4
		c-1.2-0.6-1.7-0.4-2.1,0.9c-0.2,0.6-0.5,1.3-0.4,1.9c0.3,2.3,0.7,4.6,1.3,6.9c0,0.1,0,0.2,0.1,0.4c0.4,1.8,0.9,3.5,1.5,5.2
		c1.5,4.4,4.2,6.9,8.1,9.1c0.1,1.2,0.5,2.3,0.3,3.5c-0.2,0.2-0.3,0.5-0.2,0.8c0,0,0,0,0,0c-2.2,0.5-2.8,2.4-4.1,4
		c-1.6,2-3.5,3.6-5.6,5c-1.2-2.2-1-4.9-1-7.5c0-3.8-0.5-7.8-2.8-10.8c-2.1-2.7-7.6-5.9-11.1-6c-0.4,0-0.8,0-1.2,0.3
		c-0.6,0.4-0.6,1.2-0.5,1.9c0.6,6.2,3.7,12,8.5,16c2.5,2.1,6.3,1.1,6.6,5.1c0.1,0.8,0.4,1.4,0.8,2c-0.3,0.6-0.5,1.2-1.3,1.5
		c-0.4,0.2-0.7,0.6-1.1,0.9c-2.2,2.2-4.4,4.3-6.6,6.5c-0.2,0.3-0.5,0.6-0.7,0.8c-0.3,0.2-0.6,0.4-1,0.5c-0.7-1.7-2.3-2.7-3.3-4.2
		c-1-1.6-0.7-3.1-0.7-4.9c0-2.3-0.8-4.6-2.1-6.5c-1.4-2.2-6.6-9.4-9.9-8.2c-1.9,0.7,0.1,8.9,0.7,10.4c0.9,2.4,2.5,4.4,4.1,6.3
		c2.1,2.5,4.1,3.5,7.4,3.2c0.8,1.4,1.6,2.8,2.4,4.3c0,0.3,0,0.6,0.1,0.9c-0.4,0.4-0.8,0.9-1.1,1.3c-1.1,1.2-3,2-4.1,3.3
		c-0.8,0.8-1.3,2.8-2.6,2.9c-0.6,0.1-1.2-0.3-1.7-0.7c-1.7-1.3-3.5-2.8-4.2-4.9c-0.4-1.1-0.4-2.2-0.6-3.4c-0.6-2.9-2.7-5.4-5.3-7.1
		c-2.6-1.6-5.5-2.4-8.5-2.8c-0.6-0.1-1.5,0-1.7,0.6c-0.1,0.4,0.2,0.8,0.4,1.1c1.3,1.8,1.4,4.3,2.2,6.3c1,2.6,3.2,4.5,5.2,6.4
		c1.2,1.1,2.5,2.3,4.2,2.7c1.5,0.4,3.2,0.1,4.7,0.3s3.2,1.5,2.9,3.1c-0.1,0.7-0.7,1.3-1.2,1.9c-3.3,3.4-6.5,6.9-9.8,10.3
		c-4.3-5.4-4.7-13.6-10-18.2c-2.4-2.1-5.4-3.1-8.4-4.1c-0.3-0.1-0.7-0.2-1-0.2c-1.2,0.2-1.1,1.9-0.8,3c0.9,3.5,1.9,7.1,4.3,9.9
		c2.3,2.7,5.7,4.3,9.3,5c0.6,0.1,1.2,0.2,1.8,0.5c1.3,0.6,2,1.9,2.6,3.1c0.4,0.8,0.9,1.8,0.6,2.7c-0.2,0.6-0.6,1.1-1.1,1.5
		c-6.4,6.6-12.8,13.3-20.1,18.9c-2.4,1.9-5.1,3.8-6,6.8c2.2,0.1,4.1-1.4,5.7-2.8c7.5-6.6,14.6-13.8,21.2-21.3
		c0.5-0.6,1.1-1.2,1.8-1.3c0.9-0.1,1.6,0.6,2.2,1.2c2.4,2.8,3.8,6.5,6.1,9.4c2.4,3,5.8,5.1,9.5,6.1c1.1,0.3,4.7,1.2,5.7,0.5
		c1.1-0.9-0.8-4.1-1.1-5.5c-0.2-0.6-0.6-1.1-0.9-1.7c-0.2-1.2-0.6-2.3-1.5-3.1c-2.3-2.1-4.8-3.9-8.1-4.2c-1.5-0.1-2.7-0.9-4.3-0.8
		c-1.6,0-2.6,0.4-4-0.8c-1-0.8-1.7-1.9-2.4-3c4-4.6,8.1-8.9,12.4-13.2c0.2-0.2,0.4-0.4,0.7-0.5c0.5-0.2,0.9,0,1.4,0.2
		c3,1.2,3.1,2.6,3.5,5.6c0.3,2.1,1.4,3.9,2.7,5.6c1.7,2.2,3.8,4,6.1,5.5c1.8,1.1,5.6,3.5,7.7,2.9c0.2-3.6-0.5-8-2.6-11.1
		c-3.7-5.4-11.4-6.1-16.7-10c-0.2-0.2-0.5-0.4-0.5-0.7c0-0.2,0.2-0.4,0.4-0.6c2.3-2.1,4.7-4.2,7-6.4c0.4-0.4,0.8-0.7,1.3-0.8
		c0.5-0.1,1,0.2,1.5,0.3c1.5,0.5,3.2,0.1,4.6,0.8c1.7,0.9,2.1,3,2.6,4.9c1.1,4.2,3.5,8.2,7,10.8c1.4,1,10.5,5.1,9.2,1.2
		c-1.7-5.2-3.7-10.5-8-13.8c-4.2-3.1-9.6-3.7-14.7-5.1c-0.3-0.1-0.7-0.2-0.9-0.6c-0.2-0.4,0.1-0.8,0.4-1.1c1.1-1.3,2.2-2.6,3.5-3.8
		c0.8-0.8,1.7-1.5,2.7-1.9c2.4-0.9,3.8,0.7,5,2.5c1.6,2.3,3.5,4.3,5.7,6c0.6,0.5,1.4,0.9,2.1,0.7c-0.1,0.2,0.1,0.8,0.4,1
		c3.3,2,7.9,0.5,11.1,2.7c0.5,0.4,1.3,0.8,1.7,0.3c0.2-0.2,0.2-0.5,0.2-0.7c-0.1-4.4-3.4-8.3-7.3-10.4c-3.9-2.1-8.4-2.6-12.8-3.1
		c-1.6-0.2-3.3-0.3-4.8-1c3.1-2.8,6.2-5.7,9.1-8.7c3.4-1.8,10.3,1.9,10.3,1.9c0.4,0.6,1.1,1.9,1.3,2.4c1.1,2.2,2.5,3.9,4.5,5.4
		c0.6,0.4,1.3,0.6,1.9,0.7c4.3,0.8,10.2,0.7,13.5,3.8c0.3,0.3,0.7,0.4,1,0.2c0.3-0.2,0.3-0.6,0.2-1c-0.3-1.2-1.5-2.9-1.7-3.5
		c-0.1-0.4-0.1-0.7-0.2-1.1c-0.4-1.5-1.8-2.7-2.9-3.8c-1.3-1.3-2.9-2.5-4.6-3.3c-3-1.5-6.6-2.1-9.9-1.7c-0.6,0.1-1.3,0.3-1.8,0.7
		c-2.1-2-8-2.2-10.2-2.2c0.9-1,1.9-1.9,2.8-3c0.5-0.6,2.7-3.8,3.5-3.7c1.4,0.2,3.6-3.5,4.5-4.5c1.7-1.8,3.6-3.5,5.5-5
		c-0.2,1.1,1,2,2.1,2.1c2.7,0.3,5.5-0.4,6.9,2.8c0.6,1.3,0.5,2.8,1,4.2c0.8,2.1,2.8,3.5,4.8,4.6c3.7,2.2,7.7,4.2,12,4.5
		c0.2,0,0.5,0,0.7-0.1c0.3-0.2,0.2-0.7,0.1-1C133.7,65.7,127.9,60,120.9,58.3z M84,57.4C84,57.3,84,57.3,84,57.4
		C84,57.3,84,57.3,84,57.4C84,57.3,84,57.3,84,57.4z M75.5,67.8C75.5,67.8,75.5,67.8,75.5,67.8C75.5,67.8,75.5,67.8,75.5,67.8
		C75.5,67.8,75.5,67.8,75.5,67.8z M61.2,121.8C61.2,121.9,61.2,121.9,61.2,121.8C61.3,121.9,61.3,121.9,61.2,121.8
		C61.3,121.9,61.3,121.9,61.2,121.8C61.2,121.9,61.2,121.9,61.2,121.8C61.2,121.9,61.2,121.9,61.2,121.8z M58.7,101.7
		c0,0,0,0.1,0,0.1c-0.1,0-0.1-0.1-0.2-0.1L58.7,101.7C58.7,101.7,58.7,101.7,58.7,101.7z M69.8,91.8C69.8,91.8,69.8,91.8,69.8,91.8
		c-0.1,0-0.1,0-0.2,0c0-0.1,0-0.2-0.1-0.3l0.1,0.1L69.8,91.8L69.8,91.8C69.8,91.8,69.8,91.8,69.8,91.8z M88.4,90
		C88.4,90,88.4,90,88.4,90C88.4,90,88.4,90,88.4,90c0,0.2,0.1,0.3,0.1,0.4C88.4,90.2,88.4,90.1,88.4,90C88.4,90,88.4,90,88.4,90z
		 M109.8,73.9c0,0.3,0,0.6-0.2,0.8C109.6,74.4,109.7,74.2,109.8,73.9z M103.6,73.4C103.6,73.4,103.6,73.4,103.6,73.4
		C103.6,73.4,103.6,73.4,103.6,73.4C103.6,73.4,103.6,73.4,103.6,73.4z M119,64.3C119,64.3,119,64.3,119,64.3L119,64.3
		C119,64.3,119,64.3,119,64.3z M119,64.3c0,0-0.1-0.1-0.1-0.1c0,0,0.1-0.1,0.1-0.1C119,64.2,119,64.3,119,64.3z"/>
</g>
</svg>
