<?xml version="1.0" encoding="utf-8"?>
<!-- Generator: Adobe Illustrator 22.0.1, SVG Export Plug-In . SVG Version: 6.00 Build 0)  -->
<!DOCTYPE svg PUBLIC "-//W3C//DTD SVG 1.1//EN" "http://www.w3.org/Graphics/SVG/1.1/DTD/svg11.dtd" [
	<!ENTITY st0 "fill:#B3C5BD;">
	<!ENTITY st1 "fill:#010101;">
	<!ENTITY st2 "fill:#B65641;">
]>
<svg version="1.1" xmlns="http://www.w3.org/2000/svg" xmlns:xlink="http://www.w3.org/1999/xlink" x="0px" y="0px"
	 viewBox="0 0 158.3 164.3" style="enable-background:new 0 0 158.3 164.3;" xml:space="preserve">
<g id="Layer_1">
</g>
<g id="symbol">
</g>
<g id="Layer_3">
	<path style="&st0;" d="M112.5,69.4c0.8,0.2,1.6,0.4,2.5,0.5c7.3,1.2,16.2-0.6,23-3.4c1.1-0.5,2.2-1,3-1.8c0.8-0.2,1.5-0.5,2.2-1.1
		c-0.9-0.2-1.6-0.3-2.3-0.4c-2.1-0.5-4.2-0.2-6.3-0.2c-2,0-3.9-0.5-5.9-0.8c-7-1.2-14-1.1-20.6,1.9c-1.4,0.7-2.9,1.4-4.5,1.5
		c-1.4,0-3-0.3-3.8,0.8c3.5,0.9,7,1.5,10.4,2.4C111,69,111.8,69.2,112.5,69.4z M112.4,63.4C112.4,63.4,112.4,63.4,112.4,63.4
		C112.4,63.4,112.4,63.4,112.4,63.4C112.4,63.4,112.4,63.4,112.4,63.4z M109,64.2C109,64.2,109,64.2,109,64.2
		C109,64.2,109,64.2,109,64.2L109,64.2C109,64.2,109,64.2,109,64.2C109,64.2,109,64.2,109,64.2C109,64.2,109,64.2,109,64.2
		C109,64.2,108.9,64.2,109,64.2C109,64.2,109,64.2,109,64.2z"/>
	<path style="&st0;" d="M114.9,108.7c-2.3-0.3-4.6-0.6-6.9-1.4c-6.2-2.2-10.9-7.5-16.8-10.3c-6.8-3.3-14.9-3.2-22.2-1.2
		c-7.3,2-14.1,5.6-20.7,9.2c3.3-6.1,7.3-11.7,12.1-16.6c2-2.1,4.1-4,6.6-5.4c1-0.5,2.1-1,3-1.6c1.5-1,2.7-2.4,4.1-3.5
		c1.9-1.5,4.1-2.6,6.2-3.7c0-0.6,6.6-3.2,7.4-3.6c2.6-1.2,5.2-2.4,7.7-3.7c4.8-2.5,9.4-5.4,14.2-8c4.2-2.3,8.5-4.4,12.3-7.2
		c5.2-3.9,9.4-9,12.7-14.6c2.5-4.2,4.5-8.6,6-13.2c0.2-0.6,0.1-1.5-0.5-1.4c-0.2,0-0.3,0.1-0.4,0.2c-5.2,4.5-10.8,8.4-15.9,13.1
		c-5.2,4.8-11.2,11.1-12.8,18.2c-0.1,0.3-0.3,0.6-0.4,0.8c-0.6,0.2-0.8,0.6-0.8,1.2c-0.1,0.1-0.2,0.3-0.1,0.4
		c-0.1,0.1-0.2,0.3-0.2,0.4c-0.2,0.1-0.4,0.2-0.5,0.3c-0.3,0-0.6,0.2-0.8,0.5c-1.3,1.2-2.7,2.4-4.5,3.1c-4.3,1.7-8.4,5.5-13,6.2
		c-0.3-3.3,3.2-8.4,5-11.2c2.7-4.4,6-8.6,7.6-13.6c1.1-3.7,1.2-7.6,1.4-11.4c0.1-3.8,0.6-7.5,1.1-11.2c0-0.3,0.1-0.6-0.1-0.9
		c-0.2-0.5-0.9-0.6-1.3-0.4c-0.5,0.2-0.8,0.6-1.1,1c-6.4,8.5-10.3,17.3-11.5,27.9c-0.2,1.7-0.3,3.5-0.2,5.2c0.1,1.3,0.4,2.6,0.5,4
		c0.2,2.4-0.3,4.7-1.3,6.9c-0.5,1.1-1.2,2.2-2,3.1c-0.8,0.9-1.9,1.3-2.4,2.5c-0.3,0.2-0.5,0.5-0.8,0.7c-1,0.3-1.7,1.1-2.6,1.5
		c-0.8,0.2-1.5,0.5-2.2,1c-2.3,1.6-4.9,2.9-7.4,4.3c-1.2,0.6-2.3,1.4-3.4,2.1c-0.1,0.1-0.2,0.2-0.2,0.3c-0.2,0.1-0.4,0.2-0.6,0.3
		c-0.3-0.6,0-1.2,0.2-1.8c0.5-1.4,1.2-2.8,1.4-4.3c0.2-1.4,0.6-2.6,0.9-4c4.3-3.4,7.3-11.6,7.3-16.9c0-3.5-1.1-6.9-2.3-10.2
		c-1.4-3.8-3-7.6-4.7-11.3c-0.2-0.4-0.5-0.8-0.9-0.8c-0.5,0-0.6,0.6-0.7,1.1c-0.3,2.2-0.4,4.3-0.7,6.5c-1.1,6.8-4.7,13.4-3.4,20.2
		c0.4,2.2,1.3,4.3,2.2,6.3c0.2,0.5,0.4,0.9,0.8,1.3c0.3,0.3,0.8,0.5,1.1,0.8c0.6,0.6,0.6,1.5,0.5,2.4c-0.4,4.2-1.6,8.3-4.1,11.7
		c-1.1,1.5-2.3,2.8-3.6,4.1c-4.3,4.5-8.6,9-13,13.5c-0.3-2.6-0.2-5.3,0.4-7.8c0.3-1.3,0.9-2.5,1.2-3.8c0.3-1,0.1-2,0.2-3.1
		c0.2-1.9,1-3.7,1.5-5.5c2.7-9.4,1.6-20.8-0.2-30.4c-2.9,5.5-5.8,11.2-6.5,17.5c-1,9.1,3.1,18,2.9,27.2c-0.1,7.4-3,14.5-7,20.8
		c-1.9-2.1-3.4-4.5-4.5-7.1c-0.3-0.9-0.6-1.8-0.5-2.8c0.2-1.1,0.9-2.1,1.4-3.1c0.9-2.2,0.4-4.6-0.3-6.9c-1.9-6.7-4.5-13.1-7.8-19.2
		c-0.8,4.6-1.7,9.2-1.6,13.9c0,4.7,1,9.4,3.5,13.4c2.7,4.2,7.2,7.6,8.2,12.5c0.5,2.5,0,5.1-0.6,7.6c-2.3,10-5.9,19.8-10.6,28.9
		c-1.6,3.1-3.4,6.2-3.8,9.7c5.6-5,7.9-12.3,10.3-19.1c2.2-6.3,4.9-16,13.1-16c3,0,5.7,1.6,8.6,2.5c5,1.5,10.3,0.6,15.3-0.9
		s9.7-3.6,14.8-4.6c4.1-0.8,8.7-1.1,11.7-4.1c-9.7,0.8-19.2-2.4-28.8-3.6c-3.7-0.5-7.5-0.6-10.8,0.9c-3.2,1.5-5.4,4.2-8.2,6.2
		c-3.2,2.3-7,4-10.7,5c0.7-4.1,1.4-8.2,3-12.1c1.6-3.8,4.2-7.4,7.8-9.4c3.6-2,7.8-2.3,11.9-2.3c4.6,0,9.4,0.2,13.7,1.8
		c3.6,1.3,6.9,3.3,10.6,4.7c3.2,1.2,6.6,1.7,10,2.3c2.4,0.4,4.8,0.8,7.3,0.8c3.7,0.1,7.4-0.7,10.6-2.5
		C115.7,108.7,115.3,108.7,114.9,108.7z M123.3,41.7C123.3,41.7,123.3,41.7,123.3,41.7C123.3,41.7,123.3,41.7,123.3,41.7
		C123.3,41.7,123.3,41.7,123.3,41.7z M121.3,49.1c0.1,0,0.1,0.1,0.2,0.1C121.3,49.2,121.3,49.2,121.3,49.1
		C121.2,49.1,121.2,49.1,121.3,49.1z M123.6,45.2C123.6,45.2,123.6,45.2,123.6,45.2C123.6,45.2,123.6,45.3,123.6,45.2
		C123.6,45.3,123.6,45.3,123.6,45.2C123.6,45.2,123.6,45.2,123.6,45.2z M120.5,51C120.5,51,120.5,51,120.5,51
		C120.5,51,120.5,51,120.5,51C120.5,51,120.5,51,120.5,51z M123.4,45.7C123.4,45.7,123.4,45.7,123.4,45.7
		C123.4,45.7,123.4,45.7,123.4,45.7C123.4,45.7,123.4,45.7,123.4,45.7L123.4,45.7L123.4,45.7L123.4,45.7
		C123.4,45.7,123.4,45.7,123.4,45.7C123.4,45.7,123.4,45.7,123.4,45.7C123.4,45.7,123.4,45.7,123.4,45.7z M98.5,44
		c0.1-0.1,0.1-0.1,0.2-0.2c0.1,0.1,0.1,0.2,0.2,0.3C98.8,44.2,98.7,44.1,98.5,44z M73.5,54.2C73.5,54.2,73.5,54.2,73.5,54.2
		C73.5,54.2,73.5,54.2,73.5,54.2C73.5,54.2,73.5,54.2,73.5,54.2z M76.5,52.8C76.5,52.8,76.5,52.8,76.5,52.8
		C76.5,52.9,76.6,52.9,76.5,52.8C76.6,52.9,76.5,52.9,76.5,52.8z M78.2,51.2C78.2,51.2,78.2,51.2,78.2,51.2
		C78.2,51.1,78.2,51.1,78.2,51.2C78.2,51.1,78.2,51.2,78.2,51.2z M67.4,59.4C67.5,59.4,67.5,59.4,67.4,59.4
		C67.5,59.4,67.5,59.4,67.4,59.4C67.5,59.4,67.5,59.4,67.4,59.4z M49.2,67.7L49.2,67.7C49.2,67.7,49.2,67.7,49.2,67.7
		C49.2,67.7,49.2,67.7,49.2,67.7C49.2,67.7,49.2,67.7,49.2,67.7C49.2,67.7,49.2,67.7,49.2,67.7C49.2,67.7,49.2,67.7,49.2,67.7
		C49.2,67.7,49.2,67.7,49.2,67.7C49.2,67.7,49.2,67.7,49.2,67.7C49.2,67.7,49.2,67.7,49.2,67.7z M31.7,87.6L31.7,87.6L31.7,87.6
		C31.7,87.6,31.7,87.6,31.7,87.6C31.7,87.6,31.7,87.7,31.7,87.6C31.7,87.7,31.7,87.6,31.7,87.6C31.7,87.6,31.7,87.6,31.7,87.6z
		 M30.5,86.7c0,0.1,0.1,0.2,0.1,0.3c0,0,0,0.1,0,0.1c0,0,0,0,0,0C30.6,86.9,30.5,86.8,30.5,86.7z M73.2,115
		C73.3,115,73.3,115,73.2,115C73.3,115,73.2,115,73.2,115L73.2,115L73.2,115C73.2,115,73.2,115,73.2,115z M89.2,120.2
		C89.2,120.1,89.3,120.1,89.2,120.2C89.3,120.1,89.3,120.1,89.2,120.2C89.3,120.2,89.3,120.2,89.2,120.2
		C89.2,120.2,89.2,120.2,89.2,120.2z M68.5,117.7C68.5,117.7,68.6,117.7,68.5,117.7c0.2,0,0.3,0.1,0.4,0.1
		C68.8,117.8,68.6,117.8,68.5,117.7C68.5,117.7,68.5,117.7,68.5,117.7C68.5,117.7,68.5,117.7,68.5,117.7z M68.1,117.7
		C68.1,117.7,68.1,117.7,68.1,117.7C68.1,117.7,68.1,117.7,68.1,117.7C68.1,117.7,68.1,117.7,68.1,117.7z M75.4,120.7
		C75.4,120.7,75.4,120.7,75.4,120.7C75.4,120.7,75.4,120.7,75.4,120.7C75.4,120.7,75.4,120.7,75.4,120.7z M42.1,113.1
		c-0.2,0.2-0.4,0.4-0.6,0.6C41.6,113.4,41.8,113.1,42.1,113.1z M94.4,102.8C94.4,102.7,94.3,102.7,94.4,102.8
		C94.3,102.7,94.4,102.7,94.4,102.8C94.4,102.7,94.4,102.8,94.4,102.8z M80.3,101C80.3,101,80.3,101,80.3,101
		C80.3,101,80.3,101,80.3,101C80.3,101,80.3,101,80.3,101z M99.5,104.8c0.1,0.1,0.2,0.2,0.2,0.2C99.7,105,99.6,104.9,99.5,104.8z
		 M67.8,97.4C67.8,97.4,67.8,97.4,67.8,97.4L67.8,97.4C67.8,97.4,67.8,97.4,67.8,97.4C67.8,97.4,67.8,97.4,67.8,97.4
		C67.8,97.4,67.8,97.4,67.8,97.4c-0.1,0-0.1,0.1-0.2,0.1c0,0,0-0.1,0.1-0.1C67.7,97.3,67.7,97.4,67.8,97.4z M99.7,109.9
		C99.8,109.9,99.8,109.9,99.7,109.9c0.1-0.1,0.1-0.1,0.1-0.1c0.1,0.1,0.1,0.1,0.2,0.2C99.9,110,99.8,109.9,99.7,109.9z M104.4,110.3
		C104.4,110.3,104.4,110.3,104.4,110.3C104.4,110.3,104.4,110.3,104.4,110.3C104.4,110.3,104.4,110.3,104.4,110.3
		C104.4,110.3,104.4,110.3,104.4,110.3C104.4,110.3,104.4,110.3,104.4,110.3C104.4,110.3,104.4,110.3,104.4,110.3z"/>
	<path style="&st0;" d="M136.6,88.4c-0.2-0.1-0.3-0.2-0.5-0.2c-6.4-1.8-12.5-3.8-18.7-6.1c-5.3-2-10.8-4.1-16.5-4.7
		c-5.9-0.6-11.7,1.3-17.7,1c-2.1-0.1-4.1-0.5-6.2-0.1c-3.1,0.5-0.1,1.3,1.4,1.1c1.7-0.2,3.3-0.6,5.1,0c0.2,0.1,0.4-0.1,0.7-0.2
		c0.7,0.1,1.4,0.1,2.1,0.2c1.5,0.1,3.6,1.3,5.1,1.8c1.7,0.6,3.2,1.5,4.6,2.7c2.8,2.2,5.2,5.1,8.6,6.4c6.4,2.6,13.6-0.7,20.1-1.4
		c4.1-0.4,8.2,0,12.3,0.3C137.1,88.8,136.9,88.6,136.6,88.4z M103.1,83c-0.1-0.1-0.1-0.2-0.1-0.2c0.1,0,0.2,0,0.3,0.1
		C103.2,82.9,103.2,82.9,103.1,83z M109.3,88.9C109.3,88.9,109.3,88.9,109.3,88.9C109.3,88.9,109.3,88.9,109.3,88.9
		C109.3,88.9,109.3,88.9,109.3,88.9C109.3,88.9,109.3,88.9,109.3,88.9z"/>
	<path style="&st0;" d="M90,120.9c-0.2,0.1-0.3,0.1-0.5,0.2C89.8,121.3,89.9,121.2,90,120.9z"/>
	<polygon style="&st0;" points="104.4,110.3 104.4,110.3 104.4,110.3 104.4,110.3 	"/>
</g>
</svg>
