<?xml version="1.0" encoding="utf-8"?>
<!-- Generator: Adobe Illustrator 22.0.1, SVG Export Plug-In . SVG Version: 6.00 Build 0)  -->
<!DOCTYPE svg PUBLIC "-//W3C//DTD SVG 1.1//EN" "http://www.w3.org/Graphics/SVG/1.1/DTD/svg11.dtd" [
	<!ENTITY st0 "fill:#B3C5BD;">
	<!ENTITY st1 "fill:#010101;">
	<!ENTITY st2 "fill:#B65641;">
]>
<svg version="1.1" xmlns="http://www.w3.org/2000/svg" xmlns:xlink="http://www.w3.org/1999/xlink" x="0px" y="0px"
	 viewBox="0 0 158.3 164.3" style="enable-background:new 0 0 158.3 164.3;" xml:space="preserve">
<g id="Layer_1">
</g>
<g id="symbol">
</g>
<g id="Layer_3">
	<g>
		<g>
			<path d="M81.4,102.2c-0.3,0-0.5,0-0.8-0.1c-2.5-0.9-4-6.3-5.3-19.9c-0.3-2.8,3.6-5.7,9-9.7c8.6-6.3,21.5-15.9,25.2-31.6
				c1.5-6.2,0.4-11.1-3.2-14.7c-15.5-15.5-72.9-2-73.4-1.9l-0.2-1c2.4-0.6,58.5-13.8,74.4,2.1c3.9,3.8,5,9.1,3.5,15.7
				c-3.8,16.1-16.9,25.8-25.6,32.2c-4.9,3.7-8.8,6.5-8.6,8.8c1.2,12.7,2.6,18.4,4.6,19.1c1.6,0.5,4.1-2.1,7.3-5.5
				c8.7-9.3,25-26.6,55.1-11l-0.5,0.9C113.4,70.2,98,86.6,88.9,96.3C85.6,99.8,83.4,102.2,81.4,102.2z"/>
		</g>
		<g>
			<path d="M78.7,102.1c-0.3,0-0.6-0.1-0.8-0.2c-2.2-1-3.1-5.9-3.6-20.2c-0.1-2.9,3.6-5.8,8.8-9.8c8.4-6.5,19.8-15.3,23.7-30.4
				c1.6-6.2,0.7-11.2-2.8-14.7c-14.9-15-71.2-0.6-71.8-0.5l-0.3-1c2.3-0.6,57.4-14.6,72.7,0.7c3.8,3.8,4.8,9,3.1,15.6
				c-4,15.4-15.6,24.4-24.1,30.9c-4.8,3.7-8.5,6.6-8.4,9c0.4,11,1,18.5,3,19.3c1.2,0.5,3.5-1.5,6.4-4.1c9.1-8.1,26.2-23.1,58.7-7.7
				l-0.4,0.9c-32-15.1-48.7-0.4-57.7,7.6C82.4,100.2,80.3,102.1,78.7,102.1z"/>
		</g>
		<g>
			<path d="M76.1,101.9c-0.3,0-0.7-0.1-1-0.2c-2-1.1-2.4-5.5-2-20.5c0.1-3,3.7-5.9,8.6-10C89.4,65,99.9,56.5,104,42.1
				c1.8-6.3,1-11.2-2.4-14.6C87.3,13,32,28.2,31.4,28.3l-0.3-1c2.3-0.6,56.4-15.5,71.1-0.6c3.7,3.7,4.6,9,2.7,15.6
				c-4.2,14.7-14.8,23.3-22.6,29.6c-4.6,3.7-8.2,6.6-8.3,9.2c-0.4,12-0.2,18.7,1.5,19.6c1,0.5,3.1-0.9,5.9-2.9
				c8.9-6.2,27.3-19.2,62-4.1l-0.4,0.9c-34.2-14.8-52.3-2.1-61,4C79.4,100.6,77.5,101.9,76.1,101.9z"/>
		</g>
		<g>
			<path d="M73.7,101.8c-0.4,0-0.8-0.1-1.2-0.3c-2-1.3-1.7-6.5-0.4-20.9c0.3-3.2,3.7-6.1,8.4-10.1c7-5.9,16.5-14,20.8-27.8
				c2-6.4,1.3-11.3-2-14.6c-13.7-13.9-68,2.1-68.5,2.3l-0.3-1c2.3-0.7,55.4-16.3,69.5-2c3.6,3.6,4.3,8.9,2.3,15.6
				c-4.4,14.1-14,22.3-21.1,28.3c-4.4,3.7-7.8,6.7-8.1,9.4c-1.2,12.8-1.5,18.9,0,20c0.9,0.6,3-0.5,5.8-2c9.2-4.8,28.5-14.9,64.8-0.3
				l-0.4,0.9c-35.9-14.4-54.8-4.5-63.9,0.3C76.8,100.9,75,101.8,73.7,101.8z"/>
		</g>
		<g>
			<path d="M143.4,103.9c-36.9-13.7-56.7-6.8-66.3-3.5c-3.7,1.3-5.9,2-7.2,1c-1.9-1.6-1.2-6.5,1-21.1l0-0.3
				c0.5-3.3,3.9-6.4,8.2-10.3c6.3-5.6,14.9-13.4,19.3-26.5c2.2-6.4,1.6-11.3-1.6-14.6C83.8,15.4,30.5,32.2,30,32.3l-0.3-1
				c2.2-0.7,54.4-17.1,68-3.4c3.5,3.5,4.1,8.8,1.8,15.6c-4.5,13.4-13.2,21.2-19.6,27c-4.2,3.7-7.4,6.7-7.9,9.7l0,0.3
				c-1.9,13-2.8,18.9-1.3,20.1c0.9,0.7,3,0,6.2-1.1c9.6-3.4,29.7-10.3,66.9,3.5L143.4,103.9z"/>
		</g>
		<g>
			<path d="M143.6,108.5c-37.1-12.8-57.9-8.9-67.8-7c-4.4,0.8-6.9,1.3-8.2-0.1c-1.8-1.8-0.8-6.3,1.7-18.3l0.7-3.6
				c0.7-3.5,3.9-6.6,8-10.4c5.6-5.4,13.3-12.7,17.9-25.2c2.4-6.5,2-11.4-1.1-14.5c-12.5-12.8-64.8,4.8-65.4,5l-0.3-0.9
				c2.2-0.7,53.4-18,66.4-4.7c3.4,3.5,3.8,8.7,1.3,15.6C92,56.9,84.2,64.4,78.6,69.8c-3.9,3.7-7,6.7-7.7,9.9l-0.7,3.6
				c-2.3,11-3.3,16-1.9,17.4c0.9,1,3.3,0.5,7.3-0.2c10-1.9,31-5.8,68.3,7.1L143.6,108.5z"/>
		</g>
		<g>
			<path d="M143.7,113.1c-36.2-11.6-57.1-10.7-68.3-10.2c-5.7,0.3-8.8,0.4-10.3-1.4c-1.7-2.2-0.5-6.6,2.4-17.4
				c0.4-1.6,0.9-3.3,1.4-5.1c1-3.7,3.9-6.7,7.7-10.6c5.2-5.4,11.8-12.1,16.4-24c2.6-6.5,2.3-11.4-0.6-14.5
				C80.4,17.8,29,36.2,28.5,36.3l-0.3-0.9c2.1-0.8,52.5-18.8,64.9-6.1c3.3,3.4,3.6,8.6,0.9,15.5c-4.7,12.1-11.3,18.9-16.6,24.3
				c-3.7,3.7-6.5,6.7-7.4,10.1c-0.5,1.8-0.9,3.5-1.4,5.1c-2.6,9.8-4,14.8-2.5,16.5c1.1,1.4,4.2,1.2,9.4,1
				c11.3-0.5,32.3-1.5,68.7,10.2L143.7,113.1z"/>
		</g>
		<g>
			<path d="M143.8,117.7c-34-10.2-54.7-11.6-67.1-12.5c-8.2-0.6-12.3-0.9-13.9-3.3C61,99.2,62.6,94.4,66,84c0.6-1.7,1.2-3.5,1.8-5.6
				c1.2-3.9,4-6.9,7.4-10.7c4.6-5.1,10.3-11.4,15-22.7c2.8-6.6,2.7-11.5-0.2-14.4C78.7,19,28.3,38.2,27.8,38.3l-0.4-0.9
				C29.5,36.6,79,17.8,90.8,30c3.2,3.3,3.3,8.5,0.4,15.5c-4.8,11.4-10.6,17.8-15.2,23c-3.4,3.7-6,6.7-7.2,10.3
				c-0.6,2-1.3,3.9-1.8,5.6c-3.2,9.8-4.8,14.7-3.3,16.9c1.4,2,5.5,2.3,13.2,2.9c12.4,0.9,33.3,2.4,67.4,12.6L143.8,117.7z"/>
		</g>
		<g>
			<path d="M144,122.2c-29.9-8.4-49.9-11.5-63.1-13.6c-12.2-1.9-18.3-2.9-20.3-6.3c-1.9-3.3,0.1-8.6,4.2-19.1c0.6-1.6,1.3-3.3,2-5.2
				c1.5-4,4.1-7.2,7.1-10.8c3.9-4.8,8.8-10.8,13.7-21.5c3-6.7,3.1-11.5,0.4-14.3c-10.7-11.1-60.3,8.8-60.8,9l-0.4-0.9
				c2.1-0.8,50.7-20.3,61.9-8.8c3.1,3.2,3,8.4-0.2,15.5C83.5,56.9,78.5,63,74.5,67.8c-3,3.7-5.4,6.6-6.9,10.5
				c-0.7,1.9-1.4,3.6-2,5.2c-3.9,10.2-5.9,15.4-4.2,18.3c1.7,3,7.7,4,19.6,5.8c13.3,2.1,33.3,5.2,63.3,13.6L144,122.2z"/>
		</g>
		<g>
			<path d="M144.1,126.8c-23.4-6.1-41-9.9-54-12.6C70,109.9,60.8,108,58.3,103c-2.1-4.2,0.5-10.3,5.4-21.3c0.6-1.4,1.2-2.8,1.9-4.3
				c1.8-4.2,4.1-7.3,6.7-10.8c3.3-4.5,7.4-10.2,12.3-20.3c3.2-6.7,3.5-11.5,0.9-14.3c-10-10.5-58.8,10.1-59.3,10.3l-0.4-0.9
				c2-0.9,49.9-21.1,60.4-10.1c2.9,3.1,2.7,8.3-0.7,15.4C80.6,57,76.5,62.6,73.1,67.2c-2.6,3.5-4.8,6.5-6.6,10.6
				c-0.7,1.5-1.3,3-1.9,4.3c-4.8,10.7-7.4,16.7-5.5,20.4c2.3,4.5,11.4,6.5,31.2,10.7c12.9,2.7,30.6,6.5,54,12.6L144.1,126.8z"/>
		</g>
		<g>
			<path d="M144.3,131.4c-13-3.2-24.2-5.8-34.1-8.2c-35.8-8.5-50.7-12-54.1-19.3c-2.5-5.3,1.1-12.4,7-24.1l1.5-2.9
				c2.1-4.3,4.1-7.3,6.3-10.8c2.9-4.5,6.1-9.6,11.1-19.3c3.5-6.8,4-11.5,1.5-14.2C74,22.8,26,44.1,25.6,44.4l-0.4-0.9
				c2-0.9,49.1-21.8,59-11.4c2.8,3,2.4,8.1-1.3,15.3c-5,9.7-8.3,14.8-11.1,19.3c-2.2,3.4-4.1,6.4-6.2,10.7L64,80.3
				c-5.8,11.5-9.2,18.4-7,23.3c3.2,6.9,17.9,10.4,53.4,18.7c9.9,2.3,21,5,34.1,8.2L144.3,131.4z"/>
		</g>
		<g>
			<path d="M144.4,136c-60.9-14.1-85.7-20.2-90.4-30.9c-2.9-6.6,1.5-14.6,8.9-27.7l0.6-1c2.9-5.1,4.5-8.3,6.7-12.2
				c2-3.8,4.5-8.6,9-16.7c3.7-6.8,4.4-11.5,2.1-14c-8.8-9.3-55.9,12.7-56.4,12.9l-0.4-0.9c2-0.9,48.3-22.6,57.5-12.7
				c2.7,2.8,2,8-1.9,15.2c-4.4,8.1-6.9,12.8-9,16.6c-2.1,4-3.8,7.2-6.7,12.3l-0.6,1c-7.2,12.9-11.6,20.7-8.9,26.8
				c4.5,10.2,29.2,16.3,89.8,30.3L144.4,136z"/>
		</g>
		<g>
			<path d="M144.6,140.6c-65.3-14.2-87.9-22.5-92.7-34.1c-3.3-7.9,1.9-16.8,10.6-30.7c3-4.8,4.2-7.7,5.6-11.1
				c1.6-3.9,3.4-8.3,8.3-16.7c4-6.9,4.9-11.5,2.7-13.9c-8.1-8.7-54.5,14-55,14.2l-0.4-0.9c1.9-1,47.5-23.2,56.2-14
				c2.6,2.8,1.7,7.7-2.6,15.1c-4.9,8.4-6.7,12.7-8.3,16.6c-1.4,3.4-2.6,6.4-5.7,11.2C54.7,90,49.7,98.8,52.8,106.2
				c4.6,11,27.9,19.5,92,33.5L144.6,140.6z"/>
		</g>
		<g>
			<path d="M144.7,145.2c-62.1-12.8-89.6-23.5-95-37.1c-3.8-9.4,2.8-19.9,11.7-32.7c3.4-4.8,4.2-7.6,5.1-10.9
				c1-3.6,2.2-7.8,7.2-15.8C77.9,41.8,79,37.2,77,35c-7.5-8.1-53.2,15.2-53.6,15.4l-0.5-0.9c1.9-1,46.8-23.9,54.8-15.2
				c2.4,2.6,1.4,7.5-3.3,15c-4.9,7.9-6,11.9-7,15.5c-0.9,3.3-1.7,6.2-5.2,11.2C53.4,88.5,47,98.8,50.6,107.7
				c5.3,13.2,32.6,23.8,94.3,36.5L144.7,145.2z"/>
		</g>
		<g>
			<path d="M144.8,149.8c-61.4-11.9-91.4-24.3-97.4-40.1c-3.8-10.2,2.1-20.9,12.8-34.9c3.8-4.9,4.1-7.6,4.5-10.7
				c0.5-3.4,1-7.3,6-14.9c4.5-6.8,5.9-11.5,4.1-13.6c-5.5-6-36.6,8.3-52.3,16.7l-0.5-0.9c1.9-1,46.1-24.5,53.5-16.4
				c2.3,2.5,1,7.3-4,14.8c-4.9,7.4-5.4,11.1-5.8,14.4c-0.4,3.1-0.8,6-4.7,11.1c-10.6,13.7-16.4,24.2-12.7,33.9
				c5.8,15.4,35.6,27.6,96.6,39.4L144.8,149.8z"/>
		</g>
		<g>
			<path d="M145,154.4c-60.8-11.1-93.4-25.2-99.7-42.9c-4.6-12.7,4.5-25.9,14-37.1c4.2-5,4.1-7.5,4-10.4c-0.1-3.2-0.2-6.8,4.8-14
				c6.1-8.6,6-12,4.8-13.3c-5.1-5.7-38.5,10.9-51,17.8l-0.5-0.9c1.9-1,45.5-25.1,52.2-17.6c2.1,2.3,0.6,7.1-4.7,14.6
				c-4.9,6.9-4.7,10.3-4.6,13.4c0.1,3,0.2,5.8-4.2,11.1c-9.3,11-18.2,23.9-13.8,36.2c6.2,17.4,38.6,31.2,99,42.3L145,154.4z"/>
		</g>
		<g>
			<path d="M145.1,159c-62-10.8-95.4-25.7-102.2-45.7c-3.8-11.3,1.2-24.2,15.2-39.4c4.6-5,4.1-7.4,3.5-10.1c-0.7-3-1.4-6.3,3.7-13.1
				c6.5-8.6,6.6-11.9,5.5-13.1c-4.6-5.2-37.4,12-49.7,19l-0.5-0.9c4.6-2.6,45-25.5,50.9-18.8c1.9,2.2,0.1,6.9-5.5,14.4
				c-4.8,6.4-4.2,9.4-3.5,12.3c0.7,2.9,1.3,5.7-3.7,11c-13.8,14.9-18.7,27.5-15,38.4c6.5,19.4,40.7,34.5,101.4,45.1L145.1,159z"/>
		</g>
	</g>
</g>
</svg>
