<?xml version="1.0" encoding="utf-8"?>
<!-- Generator: Adobe Illustrator 22.0.1, SVG Export Plug-In . SVG Version: 6.00 Build 0)  -->
<!DOCTYPE svg PUBLIC "-//W3C//DTD SVG 1.1//EN" "http://www.w3.org/Graphics/SVG/1.1/DTD/svg11.dtd" [
	<!ENTITY st0 "fill:#B3C5BD;">
	<!ENTITY st1 "fill:#010101;">
	<!ENTITY st2 "fill:#B65641;">
]>
<svg version="1.1" xmlns="http://www.w3.org/2000/svg" xmlns:xlink="http://www.w3.org/1999/xlink" x="0px" y="0px"
	 viewBox="0 0 158.3 164.3" style="enable-background:new 0 0 158.3 164.3;" xml:space="preserve">
<g id="Layer_1">
</g>
<g id="symbol">
</g>
<g id="Layer_3">
	<g>
		<path d="M79.2,154.6c-40,0-72.5-32.5-72.5-72.5S39.2,9.6,79.2,9.6s72.5,32.5,72.5,72.5S119.1,154.6,79.2,154.6z M79.2,20.6
			c-33.9,0-61.5,27.6-61.5,61.5s27.6,61.5,61.5,61.5s61.5-27.6,61.5-61.5S113.1,20.6,79.2,20.6z"/>
	</g>
	<g>
		<path d="M79.2,130.7c-26.8,0-48.6-21.8-48.6-48.6s21.8-48.6,48.6-48.6s48.6,21.8,48.6,48.6S105.9,130.7,79.2,130.7z M79.2,44.6
			c-20.7,0-37.6,16.8-37.6,37.6s16.8,37.6,37.6,37.6s37.6-16.8,37.6-37.6S99.9,44.6,79.2,44.6z"/>
	</g>
	<g>
		<rect x="17.3" y="88" width="123.8" height="11"/>
	</g>
</g>
</svg>
