<?xml version="1.0" encoding="utf-8"?>
<!-- Generator: Adobe Illustrator 22.0.1, SVG Export Plug-In . SVG Version: 6.00 Build 0)  -->
<!DOCTYPE svg PUBLIC "-//W3C//DTD SVG 1.1//EN" "http://www.w3.org/Graphics/SVG/1.1/DTD/svg11.dtd" [
	<!ENTITY st0 "fill:#B3C5BD;">
	<!ENTITY st1 "fill:#010101;">
	<!ENTITY st2 "fill:#B65641;">
]>
<svg version="1.1" xmlns="http://www.w3.org/2000/svg" xmlns:xlink="http://www.w3.org/1999/xlink" x="0px" y="0px"
	 viewBox="0 0 158.3 164.3" style="enable-background:new 0 0 158.3 164.3;" xml:space="preserve">
<g id="Layer_1">
</g>
<g id="symbol">
</g>
<g id="Layer_3">
	<g id="Layer_3_3_">
		<g>
			<path style="&st1;" d="M114.2,58.5c-1.1-1.2-2.6-7.8-2.9-10.7c3.2-2.5,1.9-5.7,1.1-7.1c-1.5-2.6-5.1-4.3-11-5c-0.1,0-0.2,0-0.2,0
				c0.2,0,0.3,0.1,0.4,0.1c-0.6-0.2-15-2.5-27.4-1.4c-1.2,0.1-2.2,0.2-3.1,0.3s-1.8,0.2-2.5,0.2c-0.1-1.3-0.4-3.2-1.5-5.9
				c-3.8-9.9-14.8-11.8-15.3-11.9L51.2,17l-0.6,0.2c-1.6,0.5-3.6,1.5-3.8,3.6c0,0.5-0.1,2.2,1.9,3.3c7.1,3.9,8.5,4.9,9.7,6.1
				c0,0.5-0.2,1.3-0.5,1.7c-0.3-0.1-0.6-0.2-0.9-0.2c-2.6-0.7-8.6-2.3-12.3,4.7c-2.3,4.4-2.4,6.7-0.3,9.1c0.4,0.5,0.6,0.7,0.6,1.4
				c0.2,2.4-1,6.8-1.9,9.6c-3.6,0.2-10.9,1.3-16,6.7c-6.9,7.3-7.9,21.8,1.7,31c5.4,5.2,11.3,7.3,15.6,8.8c1.6,0.6,3.9,1.4,4.3,1.9
				c1,1.4,2.2,7.8,2.7,12.9l-1,24.2l0.4,0.7c0.3,0.5,7,12.2,33.2,12.2c0.1,0,0.2,0,0.3,0c26.3-0.1,30.2-9.6,30.5-10.7l0.1-0.4
				l0.6-13.9v-0.1c0,0,0.5-35.7,0.6-41.3c0-0.8,0-1.8,0.1-3C116.7,66.8,116.3,60.6,114.2,58.5z M100,40.9c-0.1,0-0.2,0-0.2-0.1
				C99.8,40.8,99.9,40.9,100,40.9z M71.6,40c0.9-0.1,1.8-0.2,3-0.3c11.4-1,24.7,1.1,25.4,1.2c0.2,0,0.4,0.1,0.7,0.1
				c4.6,0.6,6.2,1.6,6.8,2.1c-8.8,5.9-31.4,6.3-41.6,1.8c-1.1-0.5-2.5-1.3-2.6-2.4c-0.1-0.9,0.7-2,1.7-3
				C66.3,40.5,68.5,40.3,71.6,40z M110.9,85.2c0,1.3-0.1,2.3-0.1,3.1c-0.1,5.5-0.6,40.1-0.6,41.3l-0.5,12.9
				c-0.7,1.1-5.5,6.8-25.3,6.8c-0.1,0-0.2,0-0.3,0c-19.5,0-26.5-7-28.1-8.9l1-22.9v-0.2c-0.3-2.8-1.4-12.3-3.7-15.6
				c-1.3-1.9-3.8-2.8-6.9-3.9c-4-1.4-9.1-3.2-13.7-7.6c-7.1-6.8-6.7-18-1.5-23.4c5-5.4,13.9-5.1,13.9-5.1l2,0.1l0.7-1.9
				c0.3-0.9,3-8.8,2.7-13.5c-0.2-2.5-1.3-3.8-1.9-4.5c-0.1-0.1-0.1-0.2-0.2-0.2c0-0.3,0.2-1.1,1.2-2.8c1.6-3.1,3.3-2.8,6.2-2.1
				c1.1,0.3,2.1,0.6,3.2,0.4c1.7-0.2,3.2-1.5,4.1-3.4c0.2,0.8,0.2,1.4,0.3,2c0.1,0.5,0.1,0.9,0.2,1.3c-1.4,1.3-3.1,3.3-2.9,5.5
				c0,0.4,0.1,0.7,0.2,1c-0.5-0.3-1.1-0.6-1.7-0.8L59,42.7c-1.5-0.4-4.6-0.1-6.2,4.1c-1.2,3.4-0.9,8.7-0.9,9.3v0.2v0.2
				c0.2,0.7,1,4,3.9,5c0.4,0.1,0.9,0.3,1.5,0.3c1.1,0,2.4-0.4,3.9-1.6c4.9-4,4.3-10.7,4.2-11V49c0-0.3-0.2-1-0.7-1.9l0,0
				c4.9,2.2,12.3,3.3,19.8,3.3c7.8,0,15.7-1.2,21.3-3.6c0,1.2,0.3,3.2,1,6.3c1.4,6.4,2.8,8.2,3.4,8.9
				C111.4,64.8,111,80.1,110.9,85.2z M57.8,56.2c-0.1,0.1-0.3,0.2-0.3,0.3c-0.1-0.2-0.3-0.5-0.3-0.8c-0.1-1.5-0.1-5,0.6-6.9
				c0.1-0.2,0.1-0.4,0.2-0.5c1.5,0.8,2,1.6,2.2,1.8C60.2,51.1,60.1,54.4,57.8,56.2z"/>
			<path style="&st1;" d="M54.3,72.5c-3-5.6-9.1-7.5-16.7-5c-5.2,1.7-6.9,5.1-7.3,7.7c-1,5.5,2.6,11.5,4.9,13.3
				c2.9,2.3,16.6,10.3,18.1,11.2l4.5,2.7l-0.5-5.2C55.1,74.1,54.6,73,54.3,72.5z M38.5,84.2c-1.2-0.9-3.5-5-3-8.1
				c0.2-1.1,0.8-2.6,3.7-3.5c1.7-0.5,3.2-0.8,4.5-0.8c2.6,0,4.5,1,5.6,3.1c0.4,1.6,1.2,9.3,2.1,17.5C46.6,89.3,40.2,85.4,38.5,84.2z
				"/>
		</g>
	</g>
</g>
</svg>
