<?xml version="1.0" encoding="utf-8"?>
<!-- Generator: Adobe Illustrator 22.0.1, SVG Export Plug-In . SVG Version: 6.00 Build 0)  -->
<!DOCTYPE svg PUBLIC "-//W3C//DTD SVG 1.1//EN" "http://www.w3.org/Graphics/SVG/1.1/DTD/svg11.dtd" [
	<!ENTITY st0 "fill:#B3C5BD;">
	<!ENTITY st1 "fill:#010101;">
	<!ENTITY st2 "fill:#B65641;">
]>
<svg version="1.1" xmlns="http://www.w3.org/2000/svg" xmlns:xlink="http://www.w3.org/1999/xlink" x="0px" y="0px"
	 viewBox="0 0 158.3 164.3" style="enable-background:new 0 0 158.3 164.3;" xml:space="preserve">
<g id="Layer_1">
</g>
<g id="symbol">
</g>
<g id="Layer_3">
	<g>
		<g>
			<path d="M141,154.2c-37.3-19.3-35.5-31.6-32.1-53.8c1.6-10.7,3.6-23.9,1.9-41.6c-1-10.3-5.1-17.3-12.2-20.7
				c-25.2-12.2-80.4,23-81,23.3L17,60.6c2.3-1.5,56.3-35.8,81.9-23.4c7.4,3.6,11.7,10.8,12.8,21.5c1.7,17.8-0.3,31.1-1.9,41.8
				c-3.4,22.5-5.1,33.8,31.6,52.8L141,154.2z"/>
		</g>
		<g>
			<path d="M141,154.3c-41.7-19.7-39.8-32.8-36.2-56.6c1.5-10,3.4-22.4,2.4-38.1c-0.7-10.2-4.4-17.2-11.2-20.7
				C72.6,26.7,20.8,58,20.3,58.3l-0.5-0.9c2.1-1.3,52.9-31.9,76.7-19.6c7.1,3.7,11.1,10.9,11.8,21.5c1,15.8-0.9,28.3-2.4,38.3
				c-3.6,24.1-5.4,36.1,35.6,55.6L141,154.3z"/>
		</g>
		<g>
			<path d="M141,154.3c-46.3-20.1-44.2-34.1-40.2-59.4c1.5-9.7,3.2-20.8,2.8-34.7c-0.3-10.1-3.7-17.1-10.2-20.7
				c-21.5-12-70,15.5-70.5,15.8l-0.5-0.9c2-1.2,49.4-28.1,71.4-15.8c6.8,3.8,10.4,11.1,10.7,21.6c0.4,14-1.3,25.1-2.9,34.9
				c-4,25.6-6,38.5,39.6,58.3L141,154.3z"/>
		</g>
		<g>
			<path d="M141,154.3C89.9,133.8,92.3,119,96.8,92.1c1.5-8.9,3.2-19.1,3.3-31.3c0.1-10.1-3-17.1-9.2-20.8
				C71.2,28,26.1,51.8,25.6,52.1l-0.5-0.9c1.9-1,46-24.3,66.2-12.1c6.5,4,9.8,11.3,9.7,21.7c-0.1,12.3-1.8,22.5-3.3,31.4
				c-4.5,27.2-6.8,40.9,43.6,61.1L141,154.3z"/>
		</g>
		<g>
			<path d="M141,154.3c-56.2-20.8-53.3-36.5-48.2-64.9c1.5-8.1,3.1-17.3,3.7-27.9c0.5-10-2.3-17.1-8.2-21c-18-11.9-59.6,8.3-60,8.5
				L27.9,48c1.7-0.8,42.6-20.6,61-8.4c6.3,4.1,9.2,11.5,8.6,21.9c-0.5,10.7-2.2,19.9-3.7,28c-5.1,27.9-7.9,43.3,47.5,63.8L141,154.3
				z"/>
		</g>
		<g>
			<path d="M141,154.3c-61.4-21.1-58-37.7-52-67.7c1.5-7.2,3.1-15.4,4-24.5c0.9-10-1.5-17.1-7.1-21.2c-16.3-11.8-54.5,4.8-54.9,5
				l-0.4-0.9c1.6-0.7,39.1-16.9,55.8-4.9c6,4.3,8.5,11.8,7.5,22.1c-0.9,9.2-2.5,17.4-4,24.6c-5.9,29.5-9.2,45.7,51.3,66.5L141,154.3
				z"/>
		</g>
		<g>
			<path d="M141.1,154.3c-66.8-21.4-62.6-39.8-55.7-70.4c1.4-6.3,3-13.4,4.1-21.1c1.4-10-0.6-17.3-6-21.6
				C68.8,29.5,34,42.5,33.7,42.7l-0.4-0.9c1.4-0.6,35.6-13.4,50.7-1.4c5.7,4.6,7.9,12.1,6.4,22.5c-1.1,7.7-2.7,14.9-4.1,21.2
				c-3.5,15.3-6.2,27.3,0.1,38.1c6.8,11.5,23.7,21.1,54.9,31.1L141.1,154.3z"/>
		</g>
		<g>
			<path d="M141.1,154.3c-72.5-21.7-67.5-41-59.3-73.2c1.4-5.6,2.9-11.4,4.1-17.7c1.9-10,0.3-17.5-4.9-22.1
				c-13-11.6-44.4-1.9-44.7-1.8l-0.3-1c1.3-0.4,32.2-10,45.6,2c5.4,4.8,7.2,12.6,5.2,23c-1.2,6.4-2.7,12.2-4.2,17.8
				c-8.1,31.5-13,50.6,58.6,72L141.1,154.3z"/>
		</g>
		<g>
			<path d="M141.1,154.3c-37.2-10.4-57.2-21-64.6-34.4c-6.7-12.1-2.7-25.7,1.9-41.5c1.3-4.6,2.7-9.3,4-14.4
				c2.5-10.1,1.3-17.7-3.6-22.6c-11.5-11.5-39.4-5-39.7-5l-0.2-1c1.2-0.3,28.8-6.7,40.7,5.2c5.2,5.2,6.5,13.1,3.9,23.6
				c-1.2,5.1-2.6,9.8-4,14.4c-4.8,16.2-8.5,29.1-2,40.8c7.3,13.1,27,23.6,64,33.9L141.1,154.3z"/>
		</g>
		<g>
			<path d="M141.1,154.3c-40.2-10.5-61.5-21.5-69.2-35.7c-6.8-12.6-2.1-26.7,3.4-43c1.2-3.5,2.4-7.2,3.6-10.9
				c3.1-10.1,2.3-18-2.3-23.4c-10-11.6-34.6-8-34.9-8l-0.1-1c1-0.2,25.5-3.7,35.8,8.3c4.9,5.7,5.7,13.8,2.5,24.3
				c-1.2,3.8-2.4,7.4-3.6,10.9c-5.4,16.1-10.1,30-3.4,42.2c7.5,13.9,28.6,24.7,68.5,35.2L141.1,154.3z"/>
		</g>
		<g>
			<path d="M141.1,154.3c-42.6-10.5-66.1-22.3-73.8-37C60.4,104,66,89.5,72.5,72.7c0.9-2.4,1.9-4.9,2.8-7.4
				c3.8-10.2,3.5-18.4-0.8-24.3c-8.5-11.7-30-10.9-30.2-10.9l0-1c0.9,0,22.2-0.8,31,11.3c4.5,6.2,4.8,14.7,0.9,25.2
				c-0.9,2.5-1.9,5-2.8,7.4C67,89.7,61.5,104,68.2,116.8c7.6,14.5,30.8,26.1,73.1,36.5L141.1,154.3z"/>
		</g>
		<g>
			<path d="M141.1,154.3c-45.8-10.6-70.7-22.8-78.5-38.5c-6.9-13.9-0.2-28.8,7.5-46c0.6-1.3,1.1-2.6,1.7-3.9
				c4.5-10.2,4.8-18.7,0.9-25.3C65.7,28.7,47.2,27,47,27l0.1-1c0.8,0.1,19.2,1.8,26.5,14.1c4.1,6.9,3.8,15.7-0.9,26.2
				c-0.6,1.3-1.1,2.6-1.7,3.9c-7.6,17-14.2,31.7-7.5,45.2c7.6,15.4,32.4,27.4,77.8,37.9L141.1,154.3z"/>
		</g>
		<g>
			<path d="M141.1,154.3c-49-10.7-75.5-23.4-83.2-39.9C51,99.7,59.4,83.7,68.2,66.7l0.1-0.1c5.3-10.1,6.3-19,2.9-26.4
				c-5.6-12.3-21.4-16.3-21.6-16.3l0.2-1c0.2,0,16.5,4.2,22.2,16.9c3.5,7.7,2.5,16.8-2.9,27.3l-0.1,0.1c-8.7,16.8-17,32.6-10.3,46.8
				c7.6,16.3,33.8,28.8,82.5,39.4L141.1,154.3z"/>
		</g>
		<g>
			<path d="M141.1,154.3c-52.4-10.8-80.4-23.9-88-41.4c-6.2-14.2,2-29.7,11.6-45.6c6-9.9,7.8-19.1,5.2-27.4
				c-4-12.9-17.6-19.1-17.7-19.2l0.4-0.9c0.1,0.1,14.1,6.4,18.2,19.8c2.7,8.5,0.9,18-5.3,28.2C55.7,84,48,98.7,54,112.5
				c7.4,16.9,35.9,30.3,87.3,40.9L141.1,154.3z"/>
		</g>
		<g>
			<path d="M141.1,154.3c-55.1-10.7-85.4-24.7-92.7-42.9c-5.7-14.1,2.8-29.2,12.8-43.5c8.9-12.7,10.6-25,4.9-36.6
				c-4.2-8.7-11.2-13.7-11.3-13.7l0.6-0.8c0.3,0.2,28.4,20.7,6.6,51.7C50.6,84.7,44.1,98.1,49.3,111c7.2,17.9,37.3,31.7,92,42.3
				L141.1,154.3z"/>
		</g>
		<g>
			<path d="M141.1,154.3c-58.5-10.7-90.4-25.2-97.5-44.4c-5.4-14.6,4.7-29.8,14.1-41.4c23.2-28.7,0-54-0.2-54.2l0.7-0.7
				c0.2,0.3,24,26.2,0.3,55.5c-9.2,11.4-19.1,26.3-13.9,40.5c7,18.8,38.6,33.1,96.7,43.7L141.1,154.3z"/>
		</g>
		<g>
			<path d="M141.1,154.3c-62-10.8-95.4-25.7-102.2-45.7c-3.8-11.3,1.2-24.2,15.2-39.4c25.1-27.1,6.1-57.8,5.9-58.1l0.8-0.5
				c0.2,0.3,19.6,31.6-6.1,59.3c-13.8,14.9-18.7,27.5-15,38.4c6.5,19.4,40.7,34.5,101.4,45.1L141.1,154.3z"/>
		</g>
	</g>
</g>
</svg>
